<?xml version="1.0" encoding="UTF-8"?>
<svg id="Layer_5" data-name="Layer 5" xmlns="http://www.w3.org/2000/svg" viewBox="0 0 300 250">
  <defs>
    <style>
      .cls-1 {
        fill: none;
        stroke: #fff;
        stroke-miterlimit: 10;
      }

      .cls-2 {
        fill: #fff;
      }

      .cls-3 {
        fill: #05d690;
      }

      .cls-4 {
        fill: red;
      }

      .cls-5 {
        fill: #1a1a1a;
      }
    </style>
  </defs>
  <path d="M1.38,49.62c33.9,0,61.38,27.48,61.38,61.38s-27.48,61.38-61.38,61.38V49.62Z"/>
  <path class="cls-4" d="M1.38,86.9c13.31,0,24.1,10.79,24.1,24.1s-10.79,24.1-24.1,24.1v-48.19Z"/>
  <circle cx="170.62" cy="111" r="61.38"/>
  <circle class="cls-3" cx="170.62" cy="111" r="24.1"/>
  <circle class="cls-5" cx="260.62" cy="26" r="15"/>
  <circle class="cls-5" cx="260.62" cy="195" r="15"/>
  <g>
    <line class="cls-1" x1="65" y1="111" x2="105.92" y2="111"/>
    <polygon class="cls-2" points="102.6 115.09 101.92 114.36 105.53 111 101.92 107.64 102.6 106.91 107 111 102.6 115.09"/>
  </g>
  <g>
    <line class="cls-1" x1="219.15" y1="68.85" x2="248.08" y2="39.92"/>
    <polygon class="cls-2" points="248.63 45.15 247.63 45.12 247.81 40.19 242.88 40.37 242.85 39.37 248.85 39.15 248.63 45.15"/>
  </g>
  <g>
    <line class="cls-1" x1="219.15" y1="154.15" x2="248.08" y2="183.08"/>
    <polygon class="cls-2" points="242.85 183.63 242.88 182.63 247.81 182.81 247.63 177.88 248.63 177.85 248.85 183.85 242.85 183.63"/>
  </g>
</svg>