<?xml version="1.0" encoding="UTF-8"?>
<svg id="Layer_5" data-name="Layer 5" xmlns="http://www.w3.org/2000/svg" xmlns:xlink="http://www.w3.org/1999/xlink" viewBox="0 0 300 250">
  <defs>
    <style>
      .cls-1 {
        fill: url(#linear-gradient-5);
      }

      .cls-2 {
        fill: url(#linear-gradient-4);
      }

      .cls-3 {
        fill: url(#linear-gradient-2);
      }

      .cls-4 {
        stroke: url(#linear-gradient-3);
      }

      .cls-4, .cls-5 {
        fill: none;
        stroke-miterlimit: 10;
      }

      .cls-5 {
        stroke: url(#linear-gradient);
      }

      .cls-6 {
        fill: red;
      }
    </style>
    <linearGradient id="linear-gradient" x1="87.37" y1="88.34" x2="123.52" y2="88.34" gradientUnits="userSpaceOnUse">
      <stop offset="0" stop-color="#fd8d5f"/>
      <stop offset="1" stop-color="#29abe2"/>
    </linearGradient>
    <linearGradient id="linear-gradient-2" y1="79.26" y2="79.26" xlink:href="#linear-gradient"/>
    <linearGradient id="linear-gradient-3" x1="175.39" y1="142.58" x2="211.54" y2="142.58" gradientUnits="userSpaceOnUse">
      <stop offset="0" stop-color="#29abe2"/>
      <stop offset="1" stop-color="red"/>
    </linearGradient>
    <linearGradient id="linear-gradient-4" y1="151.38" y2="151.38" xlink:href="#linear-gradient-3"/>
    <linearGradient id="linear-gradient-5" y1="133.78" y2="133.78" xlink:href="#linear-gradient-3"/>
  </defs>
  <g>
    <circle cx="60.38" cy="65.43" r="27.5"/>
    <circle class="cls-6" cx="60.38" cy="65.43" r="10.8"/>
  </g>
  <g id="Layer_1-2" data-name="Layer 1-2">
    <g>
      <path d="M149.93,142.93h0c-15.19,0-27.5-12.31-27.5-27.5h0c0-15.19,12.31-27.5,27.5-27.5h0c15.19,0,27.5,12.31,27.5,27.5h0c0,15.19-12.31,27.5-27.5,27.5Z"/>
      <path class="cls-6" d="M135.47,103.87l.9-1.08.84-1.13.97-1.02.43-.39.76-.65.75-.12.54.13.87.51,1.25.83,1.4,1.29.9.86,1.35,1.35,1.27,1.06.74.4.6.18.57-.17.88-.66.48-.57.86-.9,2.2-3.01.91-.96.48-.57.87-.78.87-.13,1.04.44,1.33,1.12,1.59,1.44.96.91,1.5,1.04.96.91.34.5.66.88.13.87-.62.99-.84,1.13-.79,1.07-2.32,2.37-.73,1-.32.38-.49,1.1.13.87.71.7,4.18,3.51.96.91.57.48.74,1.05.25.86-.56.93-.42.62-.97,1.02-.92.84-.91.96-1.2,1.69-1.03.97-.94.73-.87.13-.93-.56-1.58-1.33-1.98-1.88-2.2-1.63-.87-.51-.55-.24-.69.18-.71.59-.81.83-.73,1-2.05,2.7-1.33,1.58-.82.72-.68.29h-.53s-.69-.48-.69-.48l-.5-.31-.9-.86-1.42-1.52-1.01-.85-1.56-1.09-1.46-1.22-.59-.71-.23-.62.12-.66.51-.87,1.81-2.15.91-.96,1.35-1.35.68-.94.43-.51.4-.86.12-.66-.22-.51-.59-.71-1.52-1.28-3.45-2.57-.96-.91-.45-.49-.72-.82-.15-.98.43-1.15.9-1.08,1.39-1.53h.01ZM161.17,125.98l-.47-.72v.53s.19.28.19.28l.29-.08h0ZM163.52,122.67v.12s.31.03.31.03v-.12s-.2-.16-.2-.16l-.11.13ZM162.06,123.38l.02.23.23-.02.11-.13-.06-.05v-.12s-.19-.04-.19-.04l-.11.13h0ZM161.24,124.1v.12s.24-.02.24-.02l.05-.06v-.12s-.24.02-.24.02l-.05.06ZM161.65,123.36l-.03-.35-.25-.21-1.46.71,1.48.16.27-.32h0ZM162.29,121.95l-.09.36.06.05.18.04.21-.25-.03-.35-.34.15ZM159.98,125.09l-.02-.23-.24-.1-.21.25.31.15.17-.07h0ZM159.72,124.11l.32.27.3.03-.1-.52-.41-.02-.1.24ZM160.94,121.36l-.59-.07.33.38.5.31.08.29.43.26-.35-.62h-.12s-.28-.55-.28-.55h0ZM161.65,121.42l.19.16.34-.15-.08-.29-.18-.04s-.27.32-.27.32ZM160.3,122.77l-.09-.4-.46.04v-.53s-.29.5-.29.5l.86.4h0ZM159.15,123.64l.03-.3-1.07-.14v.12s.87.4.87.4l.17-.07ZM158.58,121.86l-.3.61.4.55h.12s.06.04.06.04l.3.03.15-.31-.73-.94ZM161,120.66l-.56-.36.15.34.19.16.22-.14h0ZM157.78,123.46v-.65l-.34-.62-.29.08-.18.6.4.55.41.02h0ZM159.84,120.87h.12s.04-.19.04-.19l-.19-.16-.22.14.25.21ZM159.93,119.22l.31.15-.39.86.91-.31-.41-.67-.41-.02ZM157.05,123.82l-.61-.94-.17-.57.48-.57,1.61-.38.09-.36-.27-.45-.74.24.08.29-.27.2-.57-.48-.64.12-.1.24.14.22.22-.14.19.16-.49,1.1.08.29-.24.55,1.22.48h0ZM158.66,121.39l.23-.02.03-.3-.19-.16-.08.48ZM158.78,120.09l-.29.08-.13-.11-.98.15.02.23,1.64-.03.14-.42-.13-.11-.23.02-.04.18h0ZM158.74,118.97l.14.22-.03.3.31.15.35-.03.57-.81-.13-.11-1.05.09-.16.19h0ZM158.16,119.67l.02-.41.27-.2-.02-.23-.23.02-.43.51.04.46.34-.15h0ZM151.01,109.79l-.05.71-.38.33.32.27.39-.21-.06-.05.24.1.1.52-.17.07-.08.48.24.1.27-.2.13.11-.05.06.25.21-.16.19.07.17-.59.7-.31-.15-.11.13.02.23.18.04-.11.13.09.4.29-.08.27-.32.19.16.02.23-.27.2.03.35.32.27-.2.37.15-.31-.63-.53-.11.13.08.29.25.21.05.58-.31.5-.35.03-.33.26-.3-.03-.04-.46.05-.06h.12s-.01-.13-.01-.13l-.06-.05-.29.08-.2-.27.47-1.33-.17.07.05-.06.04-.18-.29.08-.05.06v.12s.07.05.07.05h.12s-.54.51-.54.51l-.23.02-.68-.35-.12-.64-.41-.02-.04.18-.23.02-.13-.11-.51.22.08.29,2.2.98.18.69-.39.97.15.34.41.02.33-.26.63,1.18.55-.4.57.48h.12s-.04.17-.04.17l-.39.21-.19.49.06.05v.12s.14.11.14.11l-.46.16.31.15.27-.2.39.43.64.65.02.88.32.27-.2.37.36.09.27-.2h.12s.25.2.25.2l.16.46.2-.37-.24-.74,1.02-.44-.19-.16h-1.17s-.25-.23-.25-.23l2.34-.09.09-.36.59-.58-.39-1.08-.75.12-.37-.2,1.02-.44-.08-.29.3-.61.94-.61.3.03.51.43-.03.3-.29.08-.16.19.02.23.81-.19.05.58.06.05.4-.09.16-.19.23-.02.1-.24-2.04-1.82-.16.19-.46.16.09-.36-.45-1.13-.33.26.31.79-.1.24.1.52-.57.81h-.53s-.2.36-.2.36l-.13-.11-.54.52-.13.54.15.34.3.03.06.05-.33.91-.51.22-.27-.45.15-.31.23-.02.11-.13-1.88-.07-.05.06-.14-.22.22-.14.15-.31-.06-.05.21-.25-.02-.23.11-.13.93-.08.49-.45-.32-.27-.16-.46-.31-.15-.29.08-.21.25v.12s-.29-.03-.29-.03l-.21.25.17.57-.27.2-.04.18-.41-.67v-.65l.37-.44,1.17-.1.2-.37-.39-.43-.3-.03.46-.16.57.48.34-.15.2-.37.34-.15.14.22-.33.91,1.04-.21.07.17.23-.02.04-.18-.24-.1-.21-.39.03-.3-.14-.22-.18-.04-.03-1-.89,1.19-.89-.1.11-.13v-.12s.4.02.4.02l.53-.63-.28-.56.04-.18.33-.26.09-.36-.48-.08-.37.44h-.12s-.26-.32-.26-.32l.02-.41.45-.28-.31-.15-.39.21-.21-.39.26-.43.06.05.17-.07.36.09.34-.15.32.27.27-.2-.14-.22-.31-.15.14-1.07.41.02.14-.42-.84.48v.53s-.18.07-.18.07l.08.29.24.1-.21.25-.36-.09-.28.2.31-.5-.12-.75-.19-.16-.16.19-.02.41-.11.13-.31-.15-.16.19.08.29-.17.07-.18-.04-.1-.52.17-.07.24-.55.73-.36.2-.37-.62.23-.45-.49-.69.18-.1.24-.29.08-.02-.23-.23.02-.21.25h0ZM155.75,121.76l.04-.18-.19-.16h-.12s.15.35.15.35h.12ZM157.32,118.86l-.07-.17-.18-.04-.21.25.02.23.18.04.22-.14.04-.18ZM153.85,118.76l-.24-.1-.22.14-.04.18.31.15.28-.2-.07-.17h0ZM147.65,124.99l.15-.31-.08-.29-.6.46.14.22.4-.09h0ZM146.92,125.47l.04-.18-.19-.16h-.12s-.11.14-.11.14l.25.21h.12ZM143.87,117.4l-.11.13-.4.09-.16.19,1.11-.04.56,1.01.11-1.42.21-.25.34,1.26-.29.73.09.4.89.75,1.08-.39-.07-.82.2-.37.44,1.02.91.33.73.94-.16.19.07.17-.15.31-.64.12.03-.3-.25-.21-.29.08.19.81-.64.12.09.4.19.16.02.23.31.15.15-.31.22-.14.72-.47.23-.78.55-.4-.19-.16-.16-.46.05-.06.31.15,1.13-.45-.26-.33-1.62.26-.62-.42-.18-.69-.43-.26.11-.13-.52-.54-.54-.13-.34.15-.03.3-.05.06-.97-.39-.16-.46.43-.39.25.21.02.23.24.1.09-1.65-.51-.43-.11.13h-.12s-.7.72-.7.72l-.48-.08-.73.36-.19-.16h-.12s-.09.37-.09.37l.2.27-.05.06v.12s.02.01.02.01ZM157.05,111.73l-.8-.46h-.12s-.05.07-.05.07l-.78-.87-.18-.04-.17.07.79,1.63-.09.36.43.26.37-.44-.24-.1-.22.14-.06-.05.45-.28.06.05.11-.13v.12s.06-.06.06-.06l.3.03.19.16-.04.18.18.04.17-.07.16-.84-.3-.03-.21.25h0ZM144.93,126.81v-.12s-.14-.11-.14-.11l-.18-.04-.05.06v.12s.07.05.07.05l.3.03h0ZM147.48,123.78l-.1-1.17-.19-.16-.72.47.08.29.88.63.05-.06h0ZM146.2,124.53l.73-.36.08-.48-.27.32-.38-.32-.48-.08.31.91h0ZM150.1,119.5l.31.15.55-.4-.07-.17-.24-.1-.5.34-.04.18h0ZM143.92,127.37l-.07-.17-.29.08-.27.32-.24-.1-.29.08.68.35.48-.57h0ZM155.25,113.35l-.4.09.2.27.24.1-.04-.46ZM144.48,125.68l.2.28.35-.03v-.12s-.34-.38-.34-.38l-.21.25ZM158.52,109.08l-.36.56.3.03.05-.06h.12s.27-.21.27-.21l-.08-.29-.3-.03h0ZM143.76,126.15l-.11.13.32.27.35-.03-.15-.34-.42-.14v.12ZM145.33,125.31l.16-.19-.02-.23-.43.51.29-.08ZM157.13,110.61v.53s.64-.64.64-.64l-.14-.22-.23.02-.27.32h0ZM161.65,105.34l.08.29h.12s.1-.25.1-.25l-.19-.16-.11.13h0ZM145.45,124.77l.36-.56-.55.4.19.16ZM155.43,111.99l-.67.41-.19.49.37.2.43-.39.05-.71h0ZM146.29,121.59l.14.22.3.03.13.11h.12s.08.28.08.28l.29-.08.03-.3-.92-.45-.16.19ZM149.35,118.97l.29-.08.16-.19.24.1.22-.14.18-.6-.24-.1-.21.25-.92-.45.15,1.1-.17.07.02.23.18.04.1-.24h0ZM159.92,106.37l.08.29.46-.16.1-.24-.07-.17-.23.02-.33.26h0ZM152.63,115.58l-.27-.45.22-.14h.53s-.48.58-.48.58h0ZM144.2,125.24v-.12s.55-.28.55-.28l.05-.71-1.23,1.34.62-.23h0ZM158.62,108.19l-.44-.37-.23.02-.51-.43-2.05,2.06-.07.59,1.32-1.7.35-.03.32.27-.15.31.5.31.97-1.02h0ZM156.53,110.54l-.07-.17-.29.08-.04.18.25.21.15-.31h0ZM145.57,123.36h-.12s-.21.26-.21.26v.12s.19.04.19.04l.21-.25-.07-.17ZM145.75,122.75l.37.2.16-.19-.02-.23-.18-.04-.14-.22.17-.72-.22-.51h-.12s-.05.07-.05.07l.03,1.64h0ZM146.98,120.77l.07.17.18.04.22-.14v-.12s-.26-.21-.26-.21h-.12s-.1.25-.1.25h0ZM160.83,104.65l-.3-.03-.37.44.06.05h.12s.11-.14.11-.14l.4-.09-.02-.23h0ZM151.7,115.66l.2-.37-.2.37ZM142.76,126.19l.04-.18-.13-.11-.23.02.02.23.13.11.05-.06h.12s0-.01,0-.01ZM142.11,126.83h-.53s-.27.19-.27.19v.12s.14.11.14.11l.67-.41h0ZM156.55,109.37l-.24-.1v.12s.21.28.21.28l.11-.13-.07-.17h0ZM141.09,127.91l.03-.3-.23.02-.03.3.23-.02ZM160.55,104.73v-.12s.05.05.05.05l-.05.06ZM160.76,103.83l.07.17.13.11.27-.2-.19-.16-.23.02-.05.06ZM142.7,125.48l.35-.03.21-.25-.73-1.58-.15,1.6.32.27h0ZM158.14,106.82l-.04.18.06.05.23-.02v-.12s.04-.06.04-.06l-.3-.03h0ZM150.89,115.09l.45-.27-.4-.55-.06-.05-.21.25.02,1.52.43-.39-.22-.51h0ZM144.97,122.65l.28-.2-.31-.15-.28.2.31.15ZM143.59,123.53l.58-.05-.43-.26-.51.87.4-.09-.04-.46h0ZM143.45,119.96l.23-.02.62.42.12.64.39.43-.05.71.74-.24-.12-.75-.35.03-.2-.28.48-.57-.12-.64-.31-.15-.16.19.14.22-.16.19-.23.02-.93-.56-.27.2-.61-.3-.48,1.22,1.28-.76h0ZM158.35,105.8l-.46.16-.1.24.37.2.17-.07.15-.31-.14-.22h0ZM142.04,125.37l-.02-.23h-.12s-.06-.04-.06-.04l-.05.06v.12s.25.1.25.1h0ZM147.86,115.35l-.49-.19-.33-.38-.48-.08-.27.2-.16-.46h-.12s-.05.07-.05.07l.02.23.2.27-.05.06.54.13.14.22.23-.02.06.05.05-.06.6.18.26.33.06.7.51.43.15-.31.13.11h.12s.03-.31.03-.31l.23-.02.05-.71-.42-.14-.28.2.07.17-.16.19-.55-.89.48.08-.34-.5-.22.14-.03.3h0ZM158.62,104.84v.12s.19.04.19.04l.16-.19v-.12s-.35.15-.35.15ZM143.01,122.93l.31.15.87-.78-.61-.3-.55.4v.12s-.04.06-.04.06l.03.35h0ZM154.89,108.51l.39.43.75-.77-.24-.1-.49.45-.41-.02ZM153.79,108.67l.18.69h.76s-.83-.82-.83-.82l-.11.13h0ZM150.69,113.52l-.02.41h.12s.15-.32.15-.32l-.24-.1ZM142.15,123.95l.04-.18-.07-.17-.18-.04-.33.26-.03.3.3.03.27-.2h0ZM151.65,112.38l-.48-.08-.41-.67-.18-.04-.11.13-.2-.28-.18-.04-.29-.68-.77-.11,1.68,1.73-.39.21-.06-.05-.9.43.13-.54-.76.65v.12s-.38.21-.38.21l1.84.25.38.32-.1-.52.11-.13.03-.3,1.06-.62h0ZM157.03,106.1l-.24-.1-.5.34.04.46.31-.5.23-.02.16-.19h0ZM147.49,117.2l-.14-.22-.13-.11-.27.32.14.22.3.03.1-.24ZM142.29,122.76l.31.15h.12s.11-.14.11-.14l-.02-.88-.06-.05h-.12s-.33.92-.33.92ZM159.13,102.69l-.04.18.06.05.3.03-.02-.23-.3-.03h0ZM142.61,121.09l-.09.36.48.08.85-.37-.15-.34-.6-.18-.49.45h0ZM149.78,113.83l-.29.08-.16.19.19.16.27-.2-.02-.23h0ZM154.64,107.66v.12s.07.05.07.05l.3.03.16-.19-.24-.1-.29.08h0ZM141.14,123.74l.1-.24-.25-.21-.11.13-.02.41.29-.08h0ZM145.81,118.05l.05-.06v.12s-.05-.05-.05-.05ZM144.33,119.3l-.05.06.18.04.27-.32-.4.09v.12s0,0,0,0ZM155.13,106.56l.28-.2-.25-.21-.48-.08-.43.39.81-.19.08.29ZM156.83,103.24l.03.35.2.27.36.09.15-.31-.19-.16-.23.02-.32-.27h0ZM152.72,108.53l.25.21.23-.02.16-.19h-.65ZM153.88,107.66l.28-.2.1-.24-.06-.05h-.12s-.16.2-.16.2l-.03.3h0ZM146.08,115.8l.05-.06.06.05h-.12ZM148.21,111.33l-.36.56.99.62-.04-.46h-.53s-.06-.06-.06-.06v-.65h0ZM157.19,101.27l-.04.18.14.22.07.17.11-.13-.04-.46-.23.02h0ZM147,113.55l.18.04.22-.14.04-.18-.15-.34h-1.17s.01.1.01.1l.87.51h0ZM146.79,111.22l-.34.79.54.78.46-.04.2-.37-.7-.59-.17-.57h0ZM149.16,109.43l.15.34.32.27.27-.2-.74-.4h0ZM148.68,107.94l.26.33-.43.51-.08.48,1.14-.34-.02-.23-.25-.21-.16-.46-.48-.08h0ZM148.14,109.87l.25.21.28-.2-.32-.27-.23.02.02.23h0ZM145.67,113.19l-.31-1.56-.4.09-.29.73.53.66.48.08ZM143.57,109.92l-.09.36.14.22.29-.08.24.1-.64,1.41.15.34-.4.74,1.47.69-.17-.57-.32-.27-.39-1.08,1.94-1.28.77.11-.26-.97-.92.2.09.4-.45.28-.59-.71-.87.13h0ZM146.84,110.39l.08.29.23-.02.09-.36-.2-.28-.2.37h0ZM145.38,109.17l.02.23.48.08.45-.27,1.13.2.16-.19-.16-.46-.23.02-.43.39-.25-.21-1.15.22h0ZM147.12,107.61l.18.69.37.2.35-.03.09-.36.06.05.32-.38.29-.08.1-.24-.19-.16-1.4.12s-.16.19-.16.19ZM145.87,108.07l.05.58h.12s.27-.21.27-.21l.03-.3.11-.13v-.12s.33-.15.33-.15l-.03-.35-.3-.03-.15.31h-.12s-.32.39-.32.39ZM142.86,110.5l.09.4.24.1.04-.18-.07-.17-.31-.15ZM145.25,107.66l.04-.18-.14-.22-.18-.04-.27.32.07.17.24.1s.22-.14.22-.14ZM144.45,105.26l-.1.24.26.33-.55,1.05,1.28-.11.14.22.23-.02.1-.24-.31-.15-.08-.29-.25-.21.2-.37-.2-.27-.72-.17h0ZM143.15,109.89l-.07-.17-.24-.1-.29.08-.16.19.43.26.33-.26h0ZM143.15,105.79l-.04.18.07.17.24.1.33-.26-.07-.17-.24-.1-.29.08h0ZM140.68,106.41l.39.43.46-.16,1.34-1.47-.03-.35-.19-.16-1.26,1.64-.36-.09-.34.15h0ZM139.66,107.5l-.03.3.38.32.29-.08.03-.3-.2-.28-.24-.1-.22.14h0ZM140.08,104.29l.41.67.06.7.46-.8-.71-.7-.22.14h0ZM141.58,103.28v.12s.14.11.14.11l.27-.2-.07-.17-.18-.04-.16.19h0ZM138.85,105.63l-.17.07v.12s.07.05.07.05l.18.04.22-.14-.31-.15h0ZM140.87,101.94l.15.34.42.14-.4-.55h-.12s-.05.07-.05.07h0ZM137.09,106.96l.1-.24-.15-.34-.17.07-.04.18.02.23.13.11h.12s0-.01,0-.01ZM139.49,102.94l-.15.31.07.17h.12s.15-.32.15-.32l-.07-.17h-.12Z"/>
    </g>
  </g>
  <g id="Layer_1-2-2" data-name="Layer 1-2">
    <g>
      <path d="M239.49,192.93h0c-15.19,0-27.5-12.31-27.5-27.5h0c0-15.19,12.31-27.5,27.5-27.5h0c15.19,0,27.5,12.31,27.5,27.5h0c0,15.19-12.31,27.5-27.5,27.5Z"/>
      <path class="cls-6" d="M225.02,153.87l.9-1.08.84-1.13.97-1.02.43-.39.76-.65.75-.12.54.13.87.51,1.25.83,1.4,1.29.9.86,1.35,1.35,1.27,1.06.74.4.6.18.57-.17.88-.66.48-.57.86-.9,2.2-3.01.91-.96.48-.57.87-.78.87-.13,1.04.44,1.33,1.12,1.59,1.44.96.91,1.5,1.04.96.91.34.5.66.88.13.87-.62.99-.84,1.13-.79,1.07-2.32,2.37-.73,1-.32.38-.49,1.1.13.87.71.7,4.18,3.51.96.91.57.48.74,1.05.25.86-.56.93-.42.62-.97,1.02-.92.84-.91.96-1.2,1.69-1.03.97-.94.73-.87.13-.93-.56-1.58-1.33-1.98-1.88-2.2-1.63-.87-.51-.55-.24-.69.18-.71.59-.81.83-.73,1-2.05,2.7-1.33,1.58-.82.72-.68.29h-.53s-.69-.48-.69-.48l-.5-.31-.9-.86-1.42-1.52-1.01-.85-1.56-1.09-1.46-1.22-.59-.71-.23-.62.12-.66.51-.87,1.81-2.15.91-.96,1.35-1.35.68-.94.43-.51.4-.86.12-.66-.22-.51-.59-.71-1.52-1.28-3.45-2.57-.96-.91-.45-.49-.72-.82-.15-.98.43-1.15.9-1.08,1.39-1.53h.01ZM250.72,175.98l-.47-.72v.53s.19.28.19.28l.29-.08h0ZM253.07,172.67v.12s.31.03.31.03v-.12s-.2-.16-.2-.16l-.11.13ZM251.61,173.38l.02.23.23-.02.11-.13-.06-.05v-.12s-.19-.04-.19-.04l-.11.13h0ZM250.79,174.1v.12s.24-.02.24-.02l.05-.06v-.12s-.24.02-.24.02l-.05.06ZM251.2,173.36l-.03-.35-.25-.21-1.46.71,1.48.16.27-.32h0ZM251.84,171.95l-.09.36.06.05.18.04.21-.25-.03-.35-.34.15ZM249.53,175.09l-.02-.23-.24-.1-.21.25.31.15.17-.07h0ZM249.27,174.11l.32.27.3.03-.1-.52-.41-.02-.1.24ZM250.5,171.36l-.59-.07.33.38.5.31.08.29.43.26-.35-.62h-.12s-.28-.55-.28-.55h0ZM251.21,171.42l.19.16.34-.15-.08-.29-.18-.04-.27.32ZM249.86,172.77l-.09-.4-.46.04v-.53s-.29.5-.29.5l.86.4h0ZM248.7,173.64l.03-.3-1.07-.14v.12s.87.4.87.4l.17-.07ZM248.13,171.86l-.3.61.4.55h.12s.06.04.06.04l.3.03.15-.31-.73-.94ZM250.55,170.66l-.56-.36.15.34.19.16.22-.14h0ZM247.33,173.46v-.65l-.34-.62-.29.08-.18.6.4.55.41.02h0ZM249.4,170.87h.12s.04-.19.04-.19l-.19-.16-.22.14.25.21ZM249.49,169.22l.31.15-.39.86.91-.31-.41-.67-.41-.02ZM246.6,173.82l-.61-.94-.17-.57.48-.57,1.61-.38.09-.36-.27-.45-.74.24.08.29-.28.2-.57-.48-.64.12-.1.24.14.22.22-.14.19.16-.49,1.1.08.29-.24.55,1.22.48h0ZM248.21,171.39l.23-.02.03-.3-.19-.16-.08.48ZM248.33,170.09l-.29.08-.13-.11-.98.15.02.23,1.64-.03.14-.42-.13-.11-.23.02-.04.18h0ZM248.29,168.97l.14.22-.03.3.31.15.35-.03.57-.81-.13-.11-1.05.09-.16.19h0ZM247.71,169.67l.02-.41.27-.2-.02-.23-.23.02-.43.51.04.46.34-.15h0ZM240.56,159.79l-.05.71-.38.33.32.27.39-.21-.06-.05.24.1.1.52-.17.07-.08.48.24.1.27-.2.13.11-.05.06.25.21-.16.19.07.17-.59.7-.31-.15-.11.13.02.23.18.04-.11.13.09.4.29-.08.27-.32.19.16.02.23-.27.2.03.35.32.27-.2.37.15-.31-.63-.53-.11.13.08.29.25.21.05.58-.31.5-.35.03-.33.26-.3-.03-.04-.46.05-.06h.12s-.01-.13-.01-.13l-.06-.05-.29.08-.2-.27.47-1.33-.17.07.05-.06.04-.18-.29.08-.05.06v.12s.07.05.07.05h.12s-.54.51-.54.51l-.23.02-.68-.35-.12-.64-.41-.02-.04.18-.23.02-.13-.11-.51.22.08.29,2.2.98.18.69-.39.97.15.34.41.02.33-.26.63,1.18.55-.4.57.48h.12s-.04.17-.04.17l-.39.21-.19.49.06.05v.12s.14.11.14.11l-.46.16.31.15.27-.2.39.43.64.65.02.88.32.27-.2.37.36.09.27-.2h.12s.25.2.25.2l.16.46.2-.37-.24-.74,1.02-.44-.19-.16h-1.17s-.25-.23-.25-.23l2.34-.09.09-.36.59-.58-.39-1.08-.75.12-.37-.2,1.02-.44-.08-.29.3-.61.94-.61.3.03.51.43-.03.3-.29.08-.16.19.02.23.81-.19.05.58.06.05.4-.09.16-.19.23-.02.1-.24-2.04-1.82-.16.19-.46.16.09-.36-.45-1.13-.33.26.31.79-.1.24.1.52-.57.81h-.53s-.2.36-.2.36l-.13-.11-.54.52-.13.54.15.34.3.03.06.05-.33.91-.51.22-.28-.45.15-.31.23-.02.11-.13-1.88-.07-.05.06-.14-.22.22-.14.15-.31-.06-.05.21-.25-.02-.23.11-.13.93-.08.49-.45-.32-.27-.16-.46-.31-.15-.29.08-.21.25v.12s-.29-.03-.29-.03l-.21.25.17.57-.27.2-.04.18-.41-.67v-.65l.37-.44,1.17-.1.2-.37-.39-.43-.3-.03.46-.16.57.48.34-.15.2-.37.34-.15.14.22-.33.91,1.04-.21.07.17.23-.02.04-.18-.24-.1-.21-.39.03-.3-.14-.22-.18-.04-.03-1-.89,1.19-.89-.1.11-.13v-.12s.4.02.4.02l.53-.63-.28-.56.04-.18.33-.26.09-.36-.48-.08-.37.44h-.12s-.26-.32-.26-.32l.02-.41.45-.28-.31-.15-.39.21-.21-.39.26-.43.06.05.17-.07.36.09.34-.15.32.27.28-.2-.14-.22-.31-.15.14-1.07.41.02.14-.42-.84.48v.53s-.18.07-.18.07l.08.29.24.1-.21.25-.36-.09-.27.2.31-.5-.12-.75-.19-.16-.16.19-.02.41-.11.13-.31-.15-.16.19.08.29-.17.07-.18-.04-.1-.52.17-.07.24-.55.73-.36.2-.37-.62.23-.45-.49-.69.18-.1.24-.29.08-.02-.23-.23.02-.21.25h0ZM245.31,171.76l.04-.18-.19-.16h-.12s.15.35.15.35h.12ZM246.87,168.86l-.07-.17-.18-.04-.21.25.02.23.18.04.22-.14.04-.18ZM243.4,168.76l-.24-.1-.22.14-.04.18.31.15.27-.2-.07-.17h0ZM237.2,174.99l.15-.31-.08-.29-.6.46.14.22.4-.09h0ZM236.48,175.47l.04-.18-.19-.16h-.12s-.11.14-.11.14l.25.21h.12ZM233.42,167.4l-.11.13-.4.09-.16.19,1.11-.04.56,1.01.11-1.42.21-.25.34,1.26-.29.73.09.4.89.75,1.08-.39-.07-.82.2-.37.44,1.02.91.33.73.94-.16.19.07.17-.15.31-.64.12.03-.3-.25-.21-.29.08.19.81-.64.12.09.4.19.16.02.23.31.15.15-.31.22-.14.72-.47.23-.78.55-.4-.19-.16-.16-.46.05-.06.31.15,1.13-.45-.26-.33-1.62.26-.62-.42-.18-.69-.43-.26.11-.13-.52-.54-.54-.13-.34.15-.03.3-.05.06-.97-.39-.16-.46.43-.39.25.21.02.23.24.1.09-1.65-.51-.43-.11.13h-.12s-.7.72-.7.72l-.48-.08-.73.36-.19-.16h-.12s-.09.37-.09.37l.2.27-.05.06v.12s.02.01.02.01ZM246.6,161.73l-.8-.46h-.12s-.05.07-.05.07l-.78-.87-.18-.04-.17.07.79,1.63-.09.36.43.26.37-.44-.24-.1-.22.14-.06-.05.45-.28.06.05.11-.13v.12s.06-.06.06-.06l.3.03.19.16-.04.18.18.04.17-.07.16-.84-.3-.03-.21.25h0ZM234.48,176.81v-.12s-.14-.11-.14-.11l-.18-.04-.05.06v.12s.07.05.07.05l.3.03h0ZM237.03,173.78l-.1-1.17-.19-.16-.72.47.08.29.88.63.05-.06h0ZM235.75,174.53l.73-.36.08-.48-.27.32-.38-.32-.48-.08.31.91h0ZM239.65,169.5l.31.15.55-.4-.07-.17-.24-.1-.5.34-.04.18h0ZM233.47,177.37l-.07-.17-.29.08-.27.32-.24-.1-.29.08.68.35.48-.57h0ZM244.81,163.35l-.4.09.2.27.24.1-.04-.46ZM234.03,175.68l.2.28.35-.03v-.12s-.34-.38-.34-.38l-.21.25ZM248.07,159.08l-.36.56.3.03.05-.06h.12s.27-.21.27-.21l-.08-.29-.3-.03h0ZM233.31,176.15l-.11.13.32.27.35-.03-.15-.34-.42-.14v.12ZM234.88,175.31l.16-.19-.02-.23-.43.51.29-.08ZM246.68,160.61v.53s.64-.64.64-.64l-.14-.22-.23.02-.27.32h0ZM251.21,155.34l.08.29h.12s.1-.25.1-.25l-.19-.16-.11.13h0ZM235.01,174.77l.36-.56-.55.4.19.16ZM244.98,161.99l-.67.41-.19.49.37.2.43-.39.05-.71h0ZM235.84,171.59l.14.22.3.03.13.11h.12s.08.28.08.28l.29-.08.03-.3-.92-.45-.16.19ZM238.9,168.97l.29-.08.16-.19.24.1.22-.14.18-.6-.24-.1-.21.25-.92-.45.15,1.1-.17.07.02.23.18.04.1-.24h0ZM249.48,156.37l.08.29.46-.16.1-.24-.07-.17-.23.02-.33.26h0ZM242.18,165.58l-.27-.45.22-.14h.53s-.48.58-.48.58h0ZM233.76,175.24v-.12s.55-.28.55-.28l.05-.71-1.23,1.34.62-.23h0ZM248.17,158.19l-.44-.37-.23.02-.51-.43-2.05,2.06-.07.59,1.32-1.7.35-.03.32.27-.15.31.5.31.97-1.02h0ZM246.09,160.54l-.07-.17-.29.08-.04.18.25.21.15-.31h0ZM235.12,173.36h-.12s-.21.26-.21.26v.12s.19.04.19.04l.21-.25-.07-.17ZM235.3,172.75l.37.2.16-.19-.02-.23-.18-.04-.14-.22.17-.72-.22-.51h-.12s-.05.07-.05.07l.03,1.64h0ZM236.53,170.77l.07.17.18.04.22-.14v-.12s-.26-.21-.26-.21h-.12s-.1.25-.1.25h0ZM250.38,154.65l-.3-.03-.37.44.06.05h.12s.11-.14.11-.14l.4-.09-.02-.23h0ZM241.25,165.66l.2-.37-.2.37ZM232.31,176.19l.04-.18-.13-.11-.23.02.02.23.13.11.05-.06h.12s0-.01,0-.01ZM231.66,176.83h-.53s-.28.19-.28.19v.12s.14.11.14.11l.67-.41h0ZM246.1,159.37l-.24-.1v.12s.21.28.21.28l.11-.13-.07-.17h0ZM230.64,177.91l.03-.3-.23.02-.03.3.23-.02ZM250.1,154.73v-.12s.05.05.05.05l-.05.06ZM250.31,153.83l.07.17.13.11.28-.2-.19-.16-.23.02-.05.06ZM232.25,175.48l.35-.03.21-.25-.73-1.58-.15,1.6.32.27h0ZM247.7,156.82l-.04.18.06.05.23-.02v-.12s.04-.06.04-.06l-.3-.03h0ZM240.44,165.09l.45-.27-.4-.55-.06-.05-.21.25.02,1.52.43-.39-.22-.51h0ZM234.53,172.65l.28-.2-.31-.15-.28.2.31.15ZM233.14,173.53l.58-.05-.43-.26-.51.87.4-.09-.04-.46h0ZM233,169.96l.23-.02.62.42.12.64.39.43-.05.71.74-.24-.12-.75-.35.03-.2-.28.48-.57-.12-.64-.31-.15-.16.19.14.22-.16.19-.23.02-.93-.56-.27.2-.61-.3-.48,1.22,1.28-.76h0ZM247.9,155.8l-.46.16-.1.24.37.2.17-.07.15-.31-.14-.22h0ZM231.6,175.37l-.02-.23h-.12s-.06-.04-.06-.04l-.05.06v.12s.25.1.25.1h0ZM237.41,165.35l-.49-.19-.33-.38-.48-.08-.28.2-.16-.46h-.12s-.05.07-.05.07l.02.23.2.27-.05.06.54.13.14.22.23-.02.06.05.05-.06.6.18.26.33.06.7.51.43.15-.31.13.11h.12s.03-.31.03-.31l.23-.02.05-.71-.42-.14-.28.2.07.17-.16.19-.55-.89.48.08-.34-.5-.22.14-.03.3h0ZM248.17,154.84v.12s.19.04.19.04l.16-.19v-.12s-.35.15-.35.15ZM232.56,172.93l.31.15.87-.78-.61-.3-.55.4v.12s-.04.06-.04.06l.03.35h0ZM244.44,158.51l.39.43.75-.77-.24-.1-.49.45-.41-.02ZM243.34,158.67l.18.69h.76s-.83-.82-.83-.82l-.11.13h0ZM240.24,163.52l-.02.41h.12s.15-.32.15-.32l-.24-.1ZM231.71,173.95l.04-.18-.07-.17-.18-.04-.33.26-.03.3.3.03.27-.2h0ZM241.2,162.38l-.48-.08-.41-.67-.18-.04-.11.13-.2-.28-.18-.04-.29-.68-.77-.11,1.68,1.73-.39.21-.06-.05-.9.43.13-.54-.76.65v.12s-.38.21-.38.21l1.84.25.38.32-.1-.52.11-.13.03-.3,1.06-.62h0ZM246.58,156.1l-.24-.1-.5.34.04.46.31-.5.23-.02.16-.19h0ZM237.04,167.2l-.14-.22-.13-.11-.27.32.14.22.3.03.1-.24ZM231.84,172.76l.31.15h.12s.11-.14.11-.14l-.02-.88-.06-.05h-.12s-.33.92-.33.92ZM248.68,152.69l-.04.18.06.05.3.03-.02-.23-.3-.03h0ZM232.16,171.09l-.09.36.48.08.85-.37-.15-.34-.6-.18-.49.45h0ZM239.33,163.83l-.29.08-.16.19.19.16.27-.2-.02-.23h0ZM244.19,157.66v.12s.07.05.07.05l.3.03.16-.19-.24-.1-.29.08h0ZM230.69,173.74l.1-.24-.25-.21-.11.13-.02.41.29-.08h0ZM235.36,168.05l.05-.06v.12s-.05-.05-.05-.05ZM233.88,169.3l-.05.06.18.04.27-.32-.4.09v.12s0,0,0,0ZM244.68,156.56l.27-.2-.25-.21-.48-.08-.43.39.81-.19.08.29ZM246.39,153.24l.03.35.2.27.36.09.15-.31-.19-.16-.23.02-.32-.27h0ZM242.27,158.53l.25.21.23-.02.16-.19h-.65ZM243.43,157.66l.28-.2.1-.24-.06-.05h-.12s-.16.2-.16.2l-.03.3h0ZM235.63,165.8l.05-.06.06.05h-.12ZM237.76,161.33l-.36.56.99.62-.04-.46h-.53s-.06-.06-.06-.06v-.65h0ZM246.74,151.27l-.04.18.14.22.07.17.11-.13-.04-.46-.23.02h0ZM236.55,163.55l.18.04.22-.14.04-.18-.15-.34h-1.17s.01.1.01.1l.87.51h0ZM236.35,161.22l-.34.79.54.78.46-.04.2-.37-.7-.59-.17-.57h0ZM238.71,159.43l.15.34.32.27.27-.2-.74-.4h0ZM238.23,157.94l.26.33-.43.51-.08.48,1.14-.34-.02-.23-.25-.21-.16-.46-.48-.08h0ZM237.69,159.87l.25.21.28-.2-.32-.27-.23.02.02.23h0ZM235.23,163.19l-.31-1.56-.4.09-.29.73.53.66.48.08ZM233.12,159.92l-.09.36.14.22.29-.08.24.1-.64,1.41.15.34-.4.74,1.47.69-.17-.57-.32-.27-.39-1.08,1.94-1.28.77.11-.26-.97-.92.2.09.4-.45.28-.59-.71-.87.13h0ZM236.39,160.39l.08.29.23-.02.09-.36-.2-.28-.2.37h0ZM234.93,159.17l.02.23.48.08.45-.27,1.13.2.16-.19-.16-.46-.23.02-.43.39-.25-.21-1.15.22h0ZM236.68,157.61l.18.69.37.2.35-.03.09-.36.06.05.32-.38.29-.08.1-.24-.19-.16-1.4.12-.16.19ZM235.42,158.07l.05.58h.12s.27-.21.27-.21l.03-.3.11-.13v-.12s.33-.15.33-.15l-.03-.35-.3-.03-.15.31h-.12s-.32.39-.32.39ZM232.41,160.5l.09.4.24.1.04-.18-.07-.17-.31-.15ZM234.8,157.66l.04-.18-.14-.22-.18-.04-.27.32.07.17.24.1.22-.14ZM234,155.26l-.1.24.26.33-.55,1.05,1.28-.11.14.22.23-.02.1-.24-.31-.15-.08-.29-.25-.21.2-.37-.2-.27-.72-.17h0ZM232.71,159.89l-.07-.17-.24-.1-.29.08-.16.19.43.26.33-.26h0ZM232.7,155.79l-.04.18.07.17.24.1.33-.26-.07-.17-.24-.1-.29.08h0ZM230.23,156.41l.39.43.46-.16,1.34-1.47-.03-.35-.19-.16-1.26,1.64-.36-.09-.34.15h0ZM229.21,157.5l-.03.3.38.32.29-.08.03-.3-.2-.28-.24-.1-.22.14h0ZM229.64,154.29l.41.67.06.7.46-.8-.71-.7-.22.14h0ZM231.13,153.28v.12s.14.11.14.11l.27-.2-.07-.17-.18-.04-.16.19h0ZM228.4,155.63l-.17.07v.12s.07.05.07.05l.18.04.22-.14-.31-.15h0ZM230.43,151.94l.15.34.42.14-.4-.55h-.12s-.05.07-.05.07h0ZM226.64,156.96l.1-.24-.15-.34-.17.07-.04.18.02.23.13.11h.12s0-.01,0-.01ZM229.05,152.94l-.15.31.07.17h.12s.15-.32.15-.32l-.07-.17h-.12Z"/>
    </g>
  </g>
  <g>
    <line class="cls-5" x1="123.25" y1="99.18" x2="88.55" y2="77.5"/>
    <polygon class="cls-3" points="93.53 75.79 93.72 76.77 88.88 77.71 90.16 82.47 89.2 82.73 87.63 76.93 93.53 75.79"/>
  </g>
  <g>
    <line class="cls-4" x1="210.36" y1="153.13" x2="176.58" y2="132.02"/>
    <polygon class="cls-2" points="209.71 147.91 208.75 148.17 210.03 152.93 205.19 153.86 205.38 154.84 211.28 153.71 209.71 147.91"/>
    <polygon class="cls-1" points="181.55 130.31 181.75 131.29 176.9 132.23 178.19 136.99 177.22 137.25 175.66 131.45 181.55 130.31"/>
  </g>
</svg>