<?xml version="1.0" encoding="UTF-8"?>
<svg id="Layer_2" data-name="Layer 2" xmlns="http://www.w3.org/2000/svg" viewBox="0 0 100 100">
  <defs>
    <style>
      .cls-1 {
        fill: #fff;
      }
    </style>
  </defs>
  <g id="Layer_5" data-name="Layer 5">
    <g>
      <path class="cls-1" d="M43.78,46.95c2.17,2.63,1.99,6.77-.4,9.18-2.54,2.56-6.52,2.1-8.56-.97-.74-1.12-1.15-2.5-1.15-3.74.04-2,.64-3.68,2.03-5,2.41-2.29,5.96-2.04,8.08.53Z"/>
      <path class="cls-1" d="M65.62,47.4c1.91,2.75,1.45,6.85-.99,8.97-2.37,2.06-5.59,1.88-7.71-.45-2.7-2.96-2.17-7.96,1.08-10.14.91-.61,1.92-.92,3.4-.92,1.57.06,3.11.93,4.22,2.54Z"/>
      <path class="cls-1" d="M50,0C22.38,0,0,22.38,0,50s22.38,50,50,50,50-22.38,50-50S77.62,0,50,0ZM82.63,61.83c-.03.15-.08.3-.08.45-.06.85-.09,1.7-.19,2.55-.03.22-.18.5-.36.63-4.01,2.91-8.33,5.25-12.98,6.96-.98.35-1.96.69-2.93,1.04h-.21c-.25-.38-.51-.74-.75-1.12-.93-1.49-1.85-2.98-2.75-4.44,1.92-.92,3.72-1.78,5.53-2.65-.77-.98-1.47-1.09-2.57-.62-6.94,3-14.17,3.85-21.63,2.56-3.26-.56-6.39-1.55-9.42-2.88-.17-.08-.43-.14-.56-.06-.4.25-.76.57-1.25.96,1.9.91,3.7,1.77,5.52,2.63-.08.15-.15.35-.26.53-1.06,1.69-2.12,3.39-3.18,5.09h-.21c-.88-.31-1.75-.63-2.63-.94-4.74-1.71-9.14-4.08-13.23-7.02-.27-.19-.39-.39-.4-.73-.04-1.04-.12-2.08-.19-3.12-.02-.32-.06-.65-.09-.96v-2.31c.03-.15.08-.3.08-.44.06-2.86.38-5.7.92-8.51,1.44-7.48,4.48-14.29,8.7-20.6.15-.22.39-.4.62-.51,3.05-1.39,6.21-2.46,9.47-3.23,1.08-.26,2.16-.5,3.24-.74h.31c.49,1,1,1.99,1.46,3,.18.39.37.47.79.43,1.96-.19,3.92-.39,5.88-.47,2.65-.1,5.3.1,7.93.47.15.02.42-.04.48-.15.54-1.08,1.06-2.19,1.58-3.28h.31c.09.04.18.09.28.11,4.29.78,8.42,2.04,12.4,3.83.26.12.52.31.67.54,5.44,8.06,8.79,16.86,9.51,26.61.04.64.12,1.27.18,1.9v4.5Z"/>
    </g>
  </g>
</svg>