<?xml version="1.0" encoding="UTF-8"?>
<svg id="Layer_2" data-name="Layer 2" xmlns="http://www.w3.org/2000/svg" viewBox="0 0 170 170">
  <defs>
    <style>
      .cls-1 {
        fill: #662d91;
      }

      .cls-2 {
        fill: red;
      }
    </style>
  </defs>
  <g id="Layer_5" data-name="Layer 5">
    <g>
      <path class="cls-1" d="M85,85v85h-.85l-41.65-41.65v41.65H0v-85h42.53c.43,11.36,9.78,20.4,21.22,20.4,5.87,0,11.19-2.38,15.03-6.22,3.66-3.66,5.98-8.65,6.19-14.18h.03Z"/>
      <rect class="cls-2" x="58.65" y="80.76" width="10.2" height="10.2" rx="5.1" ry="5.1" transform="translate(127.5 171.72) rotate(180)"/>
      <path class="cls-1" d="M85,84.15c0,.29,0,.58-.03.85h-42.43c-.03-.27-.03-.56-.03-.85,0-5.86,2.38-11.17,6.22-15.03,3.84-3.84,9.16-6.22,15.03-6.22s11.19,2.38,15.03,6.22c3.84,3.86,6.22,9.16,6.22,15.03Z"/>
      <polygon class="cls-1" points="85 0 85 85 0 85 85 0"/>
      <path class="cls-1" d="M170,85v85h-42.5v-41.65l-41.65,41.65h-.85v-85h.03c.43,11.36,9.78,20.4,21.22,20.4,5.87,0,11.19-2.38,15.03-6.22,3.66-3.66,5.98-8.65,6.19-14.18h42.53Z"/>
      <path class="cls-1" d="M127.5,84.15c0,.29,0,.58-.03.85h-42.43c-.03-.27-.03-.56-.03-.85,0-5.86,2.38-11.17,6.22-15.03,3.84-3.84,9.16-6.22,15.03-6.22s11.19,2.38,15.03,6.22c3.84,3.86,6.22,9.16,6.22,15.03Z"/>
      <polygon class="cls-1" points="170 85 85 85 85 0 170 85"/>
    </g>
  </g>
</svg>