<?xml version="1.0" encoding="UTF-8"?>
<svg id="Layer_2" data-name="Layer 2" xmlns="http://www.w3.org/2000/svg" viewBox="0 0 170 170">
  <defs>
    <style>
      .cls-1 {
        fill: #ed1e79;
      }

      .cls-2 {
        fill: #fff;
      }

      .cls-3 {
        fill: #c7b299;
      }

      .cls-4 {
        fill: aqua;
      }
    </style>
  </defs>
  <g id="Layer_5" data-name="Layer 5">
    <g>
      <path class="cls-3" d="M85,85v-.85c0,.29,0,.58.03.85h-.03Z"/>
      <path class="cls-1" d="M170,0v85h-42.53c.03-.27.03-.56.03-.85,0-5.86-2.38-11.17-6.22-15.03-3.84-3.84-9.16-6.22-15.03-6.22s-11.19,2.38-15.03,6.22c-3.84,3.86-6.22,9.16-6.22,15.03V0h85Z"/>
      <path class="cls-1" d="M85,85v85H0v-85h42.53c.42,11.36,9.77,20.4,21.22,20.4,5.87,0,11.19-2.38,15.03-6.22,3.66-3.66,5.98-8.65,6.19-14.18h.03Z"/>
      <path class="cls-2" d="M85,84.15c0,.29,0,.58-.03.85h-42.43c-.03-.27-.03-.56-.03-.85,0-5.86,2.38-11.17,6.22-15.03,3.84-3.84,9.16-6.22,15.03-6.22s11.19,2.38,15.03,6.22c3.84,3.86,6.22,9.16,6.22,15.03Z"/>
      <polygon class="cls-1" points="85 0 85 85 0 85 85 0"/>
      <path class="cls-1" d="M170,85v85h-42.5v-41.65l-41.65,41.65h-.85v-85h.03c.42,11.36,9.78,20.4,21.22,20.4,5.87,0,11.19-2.38,15.03-6.22,3.66-3.66,5.98-8.65,6.19-14.18h42.53Z"/>
      <rect class="cls-1" x="58.65" y="80.76" width="10.2" height="10.2" rx="5.1" ry="5.1" transform="translate(127.5 171.72) rotate(-180)"/>
      <rect class="cls-4" x="101.15" y="79.06" width="10.2" height="10.2" rx="5.1" ry="5.1" transform="translate(212.5 168.32) rotate(-180)"/>
    </g>
  </g>
</svg>