<?xml version="1.0" encoding="UTF-8"?>
<svg id="Layer_2" data-name="Layer 2" xmlns="http://www.w3.org/2000/svg" viewBox="0 0 170 169.99">
  <defs>
    <style>
      .cls-1 {
        fill: #05d690;
      }

      .cls-2 {
        fill: #c7b299;
      }

      .cls-3 {
        fill: aqua;
      }
    </style>
  </defs>
  <g id="Layer_5" data-name="Layer 5">
    <g>
      <path class="cls-2" d="M85,84.99v46.75c0-5.86-2.38-11.17-6.22-15.03-3.84-3.84-9.16-6.22-15.03-6.22s-11.19,2.38-15.03,6.22c-3.84,3.86-6.22,9.16-6.22,15.03,0,11.75,9.52,21.25,21.25,21.25,5.86,0,11.19-2.38,15.03-6.22s6.22-9.16,6.22-15.03v38.25H0v-85h85Z"/>
      <path class="cls-2" d="M85,0h0v85H0C0,38.09,38.09,0,85,0Z"/>
      <polygon class="cls-2" points="170 84.99 170 169.99 127.5 169.99 127.5 128.34 85 128.34 85 84.99 170 84.99"/>
      <rect class="cls-1" x="101.15" y="144.5" width="10.2" height="10.2"/>
      <path class="cls-2" d="M85,0h0C131.91,0,170,38.09,170,85h-85V0h0Z"/>
      <rect class="cls-3" x="58.65" y="126.65" width="10.2" height="10.2" rx="5.1" ry="5.1"/>
    </g>
  </g>
</svg>