<?xml version="1.0" encoding="UTF-8"?>
<svg id="Layer_2" data-name="Layer 2" xmlns="http://www.w3.org/2000/svg" viewBox="0 0 170 169.99">
  <defs>
    <style>
      .cls-1 {
        fill: #00a99d;
      }

      .cls-2 {
        fill: #05d690;
      }

      .cls-3 {
        fill: red;
      }
    </style>
  </defs>
  <g id="Layer_5" data-name="Layer 5">
    <g>
      <path class="cls-1" d="M50.42,133.71c-3.84,3.86-6.22,9.16-6.22,15.03,0,11.75,9.52,21.25,21.25,21.25H0v-85h85v55.42c-1.07-2.52-2.62-4.79-4.52-6.7-3.84-3.84-9.16-6.22-15.03-6.22s-11.19,2.38-15.03,6.22Z"/>
      <path class="cls-1" d="M85,169.99h-19.55c5.86,0,11.19-2.38,15.03-6.22,1.9-1.9,3.45-4.16,4.52-6.68v12.9Z"/>
      <path class="cls-1" d="M85,0h0v85H0C0,38.09,38.09,0,85,0Z"/>
      <path class="cls-1" d="M107.95,169.99h-22.95v-12.9c1.09-2.57,1.7-5.39,1.7-8.35,0,11.75,9.52,21.25,21.25,21.25Z"/>
      <path class="cls-1" d="M170,84.99v85h-62.05c5.86,0,11.19-2.38,15.03-6.22,3.84-3.84,6.22-9.16,6.22-15.03s-2.38-11.17-6.22-15.03c-3.84-3.84-9.16-6.22-15.03-6.22s-11.19,2.38-15.03,6.22c-3.84,3.86-6.22,9.16-6.22,15.03,0-2.96-.61-5.78-1.7-8.33v-55.42h85Z"/>
      <rect class="cls-3" x="60.35" y="143.65" width="10.2" height="10.2" rx="5.1" ry="5.1"/>
      <rect class="cls-2" x="102.85" y="143.65" width="10.2" height="10.2" rx="5.1" ry="5.1"/>
      <path class="cls-1" d="M85,0h0C131.91,0,170,38.09,170,85h-85V0h0Z"/>
    </g>
  </g>
</svg>