<?xml version="1.0" encoding="UTF-8"?>
<svg id="Layer_2" data-name="Layer 2" xmlns="http://www.w3.org/2000/svg" viewBox="0 0 170 170.01">
  <defs>
    <style>
      .cls-1 {
        fill: #fff;
      }

      .cls-2 {
        fill: #ff0;
      }

      .cls-3 {
        fill: #c7b299;
      }

      .cls-4 {
        fill: #fbb03b;
      }
    </style>
  </defs>
  <g id="Layer_5" data-name="Layer 5">
    <g>
      <path class="cls-4" d="M170,0v85h-42.53c-.43-11.34-9.78-20.4-21.22-20.4-5.86,0-11.19,2.38-15.03,6.22-3.66,3.67-5.98,8.65-6.19,14.18h-.03V0h85Z"/>
      <path class="cls-3" d="M85.03,85c-.03.27-.03.56-.03.85v-.85h.03Z"/>
      <path class="cls-4" d="M170,85l-85,85v-84.15c0,5.87,2.38,11.19,6.22,15.03s9.16,6.22,15.03,6.22,11.19-2.38,15.03-6.22c3.84-3.84,6.22-9.16,6.22-15.03,0-.29,0-.58-.03-.85h42.53Z"/>
      <path class="cls-4" d="M85,0v85h-.03c-.43-11.34-9.77-20.4-21.22-20.4-5.86,0-11.19,2.38-15.03,6.22-3.66,3.67-5.98,8.65-6.19,14.18H0V0h85Z"/>
      <rect class="cls-2" x="101.15" y="80.76" width="10.2" height="10.2" rx="5.1" ry="5.1" transform="translate(212.5 171.72) rotate(-180)"/>
      <path class="cls-1" d="M85,85.85c0,5.87-2.38,11.19-6.22,15.03-3.84,3.84-9.16,6.22-15.03,6.22s-11.19-2.38-15.03-6.22c-3.84-3.84-6.22-9.16-6.22-15.03,0-.29,0-.58.03-.85h42.43c.03.27.03.56.03.85Z"/>
      <polygon class="cls-4" points="0 85.01 85 85.01 85 170.01 0 85.01"/>
    </g>
  </g>
</svg>