<?xml version="1.0" encoding="UTF-8"?>
<svg id="Layer_5" data-name="Layer 5" xmlns="http://www.w3.org/2000/svg" viewBox="0 0 170 170">
  <defs>
    <style>
      .cls-1 {
        fill: red;
      }

      .cls-2 {
        fill: none;
        stroke: #fff;
        stroke-miterlimit: 10;
        stroke-width: 2px;
      }
    </style>
  </defs>
  <g>
    <circle cx="68.12" cy="88.03" r="30"/>
    <g>
      <path class="cls-1" d="M80.3,86.67c-.69-5.99-5.87-10.64-12.16-10.64-1.66,0-3.25.33-4.7.92,4.51,5.16,10.09,8.38,16.86,9.72Z"/>
      <path class="cls-1" d="M80.3,89.39c-6.76,1.34-12.35,4.56-16.86,9.72,1.45.59,3.03.92,4.7.92,6.29,0,11.47-4.65,12.16-10.64Z"/>
      <path class="cls-1" d="M58.42,80.74c-1.4,1.79-2.29,3.97-2.48,6.35h14.82c-4.48-1.38-8.76-3.13-12.34-6.35Z"/>
      <path class="cls-1" d="M55.94,88.95c.18,2.38,1.08,4.57,2.48,6.36,3.56-3.2,7.82-4.97,12.28-6.36h-14.76Z"/>
      <path class="cls-1" d="M69.97,91.22c-3.78,1.15-7.35,2.67-10.33,5.44.64.61,1.36,1.15,2.12,1.61,2.34-2.81,5.11-5.11,8.21-7.05Z"/>
      <path class="cls-1" d="M61.76,77.79c-.75.45-1.45.98-2.08,1.58,3.02,2.81,6.67,4.34,10.5,5.53-3.17-1.91-6-4.21-8.41-7.1Z"/>
    </g>
  </g>
  <path class="cls-2" d="M68.12,48.03c22.09,0,40,17.91,40,40s-17.91,40-40,40"/>
  <line class="cls-2" x1="108.12" y1="89.39" x2="170" y2="89.39"/>
</svg>