<?xml version="1.0" encoding="UTF-8"?>
<svg id="Layer_5" data-name="Layer 5" xmlns="http://www.w3.org/2000/svg" viewBox="0 0 170 170">
  <defs>
    <style>
      .cls-1 {
        fill: none;
        stroke: #fff;
        stroke-miterlimit: 10;
      }

      .cls-2 {
        fill: #fff;
      }

      .cls-3 {
        fill: red;
      }
    </style>
  </defs>
  <g>
    <circle cx="84.66" cy="84.99" r="30"/>
    <g>
      <path class="cls-3" d="M96.84,83.63c-.69-5.99-5.87-10.64-12.16-10.64-1.66,0-3.25.33-4.7.92,4.51,5.16,10.09,8.38,16.86,9.72Z"/>
      <path class="cls-3" d="M96.84,86.35c-6.76,1.34-12.35,4.56-16.86,9.72,1.45.59,3.03.92,4.7.92,6.29,0,11.47-4.65,12.16-10.64Z"/>
      <path class="cls-3" d="M74.95,77.7c-1.4,1.79-2.29,3.97-2.48,6.35h14.82c-4.48-1.38-8.76-3.13-12.34-6.35Z"/>
      <path class="cls-3" d="M72.47,85.91c.18,2.38,1.08,4.57,2.48,6.36,3.56-3.2,7.82-4.97,12.28-6.36h-14.76Z"/>
      <path class="cls-3" d="M86.51,88.18c-3.78,1.15-7.35,2.67-10.33,5.44.64.61,1.36,1.15,2.12,1.61,2.34-2.81,5.11-5.11,8.21-7.05Z"/>
      <path class="cls-3" d="M78.29,74.75c-.75.45-1.45.98-2.08,1.58,3.02,2.81,6.67,4.34,10.5,5.53-3.17-1.91-6-4.21-8.41-7.1Z"/>
    </g>
  </g>
  <g>
    <line class="cls-1" x1="85.13" y1="116.75" x2="85.13" y2="137.66"/>
    <polygon class="cls-2" points="81.04 134.35 81.77 133.67 85.13 137.28 88.49 133.67 89.22 134.35 85.13 138.75 81.04 134.35"/>
  </g>
  <g>
    <line class="cls-1" x1="85.13" y1="53.75" x2="85.13" y2="32.83"/>
    <polygon class="cls-2" points="89.22 36.15 88.49 36.83 85.13 33.22 81.78 36.83 81.04 36.15 85.13 31.75 89.22 36.15"/>
  </g>
  <g>
    <line class="cls-1" x1="62.86" y1="107.52" x2="48.07" y2="122.31"/>
    <polygon class="cls-2" points="47.52 117.08 48.52 117.11 48.34 122.04 53.27 121.86 53.3 122.86 47.3 123.08 47.52 117.08"/>
  </g>
  <g>
    <line class="cls-1" x1="107.41" y1="62.97" x2="122.2" y2="48.18"/>
    <polygon class="cls-2" points="122.74 53.42 121.74 53.38 121.93 48.46 117 48.64 116.96 47.64 122.96 47.42 122.74 53.42"/>
  </g>
  <g>
    <line class="cls-1" x1="53.63" y1="85.25" x2="32.72" y2="85.25"/>
    <polygon class="cls-2" points="36.03 81.16 36.71 81.89 33.1 85.25 36.71 88.6 36.03 89.34 31.63 85.25 36.03 81.16"/>
  </g>
  <g>
    <line class="cls-1" x1="116.63" y1="85.25" x2="137.55" y2="85.25"/>
    <polygon class="cls-2" points="134.23 89.34 133.55 88.61 137.16 85.25 133.55 81.89 134.23 81.16 138.63 85.25 134.23 89.34"/>
  </g>
  <g>
    <line class="cls-1" x1="107.41" y1="107.52" x2="122.2" y2="122.31"/>
    <polygon class="cls-2" points="116.96 122.86 117 121.86 121.92 122.04 121.74 117.11 122.74 117.08 122.96 123.08 116.96 122.86"/>
  </g>
  <g>
    <line class="cls-1" x1="62.86" y1="62.97" x2="48.07" y2="48.18"/>
    <polygon class="cls-2" points="53.3 47.64 53.27 48.64 48.34 48.46 48.52 53.38 47.52 53.42 47.3 47.42 53.3 47.64"/>
  </g>
  <g>
    <circle cx="84.66" cy="20.99" r="10"/>
    <circle cx="84.66" cy="148.99" r="10"/>
  </g>
  <g>
    <circle cx="129.91" cy="39.73" r="10"/>
    <circle cx="39.4" cy="130.24" r="10"/>
  </g>
  <g>
    <circle cx="148.66" cy="84.99" r="10"/>
    <circle cx="20.66" cy="84.99" r="10"/>
  </g>
  <g>
    <circle cx="129.91" cy="130.24" r="10"/>
    <circle cx="39.4" cy="39.73" r="10"/>
  </g>
</svg>