<?xml version="1.0" encoding="UTF-8"?>
<svg id="Layer_5" data-name="Layer 5" xmlns="http://www.w3.org/2000/svg" viewBox="0 0 170 170">
  <defs>
    <style>
      .cls-1 {
        fill: none;
        stroke: #fff;
        stroke-miterlimit: 10;
      }

      .cls-2 {
        fill: red;
      }
    </style>
  </defs>
  <polyline class="cls-1" points="145.5 25.08 145.5 146.08 24.5 25.08 145.5 25.08 24.5 146.08 145.5 146.08"/>
  <path class="cls-1" d="M24.5,146.08c-1.5-1.5,0-120.51,0-120.51"/>
  <polygon class="cls-1" points="64.51 25.11 24.28 65.34 105.13 146.18 145.95 105.36 64.51 25.11"/>
  <polygon class="cls-1" points="104.51 25.11 23.95 105.67 64.79 146.51 145.65 65.65 104.51 25.11"/>
  <g>
    <circle cx="24.51" cy="25.11" r="10"/>
    <g>
      <path class="cls-2" d="M28.57,24.66c-.23-2-1.96-3.55-4.05-3.55-.55,0-1.08.11-1.57.31,1.5,1.72,3.36,2.79,5.62,3.24Z"/>
      <path class="cls-2" d="M28.57,25.57c-2.25.45-4.12,1.52-5.62,3.24.48.2,1.01.31,1.57.31,2.1,0,3.82-1.55,4.05-3.55Z"/>
      <path class="cls-2" d="M21.27,22.68c-.47.6-.76,1.32-.83,2.12h4.94c-1.49-.46-2.92-1.04-4.11-2.12Z"/>
      <path class="cls-2" d="M20.45,25.42c.06.79.36,1.52.83,2.12,1.19-1.07,2.61-1.66,4.09-2.12h-4.92Z"/>
      <path class="cls-2" d="M25.13,26.18c-1.26.38-2.45.89-3.44,1.81.21.2.45.38.71.54.78-.94,1.7-1.7,2.74-2.35Z"/>
      <path class="cls-2" d="M22.39,21.7c-.25.15-.48.33-.69.53,1.01.94,2.22,1.45,3.5,1.84-1.06-.64-2-1.4-2.8-2.37Z"/>
    </g>
  </g>
  <g>
    <circle cx="64.51" cy="25.11" r="10"/>
    <g>
      <path class="cls-2" d="M68.57,24.66c-.23-2-1.96-3.55-4.05-3.55-.55,0-1.08.11-1.57.31,1.5,1.72,3.36,2.79,5.62,3.24Z"/>
      <path class="cls-2" d="M68.57,25.57c-2.25.45-4.12,1.52-5.62,3.24.48.2,1.01.31,1.57.31,2.1,0,3.82-1.55,4.05-3.55Z"/>
      <path class="cls-2" d="M61.27,22.68c-.47.6-.76,1.32-.83,2.12h4.94c-1.49-.46-2.92-1.04-4.11-2.12Z"/>
      <path class="cls-2" d="M60.45,25.42c.06.79.36,1.52.83,2.12,1.19-1.07,2.61-1.66,4.09-2.12h-4.92Z"/>
      <path class="cls-2" d="M65.13,26.18c-1.26.38-2.45.89-3.44,1.81.21.2.45.38.71.54.78-.94,1.7-1.7,2.74-2.35Z"/>
      <path class="cls-2" d="M62.39,21.7c-.25.15-.48.33-.69.53,1.01.94,2.22,1.45,3.5,1.84-1.06-.64-2-1.4-2.8-2.37Z"/>
    </g>
  </g>
  <g>
    <circle cx="104.51" cy="25.11" r="10"/>
    <g>
      <path class="cls-2" d="M108.57,24.66c-.23-2-1.96-3.55-4.05-3.55-.55,0-1.08.11-1.57.31,1.5,1.72,3.36,2.79,5.62,3.24Z"/>
      <path class="cls-2" d="M108.57,25.57c-2.25.45-4.12,1.52-5.62,3.24.48.2,1.01.31,1.57.31,2.1,0,3.82-1.55,4.05-3.55Z"/>
      <path class="cls-2" d="M101.27,22.68c-.47.6-.76,1.32-.83,2.12h4.94c-1.49-.46-2.92-1.04-4.11-2.12Z"/>
      <path class="cls-2" d="M100.45,25.42c.06.79.36,1.52.83,2.12,1.19-1.07,2.61-1.66,4.09-2.12h-4.92Z"/>
      <path class="cls-2" d="M105.13,26.18c-1.26.38-2.45.89-3.44,1.81.21.2.45.38.71.54.78-.94,1.7-1.7,2.74-2.35Z"/>
      <path class="cls-2" d="M102.39,21.7c-.25.15-.48.33-.69.53,1.01.94,2.22,1.45,3.5,1.84-1.06-.64-2-1.4-2.8-2.37Z"/>
    </g>
  </g>
  <g>
    <circle cx="144.51" cy="25.11" r="10"/>
    <g>
      <path class="cls-2" d="M148.57,24.66c-.23-2-1.96-3.55-4.05-3.55-.55,0-1.08.11-1.57.31,1.5,1.72,3.36,2.79,5.62,3.24Z"/>
      <path class="cls-2" d="M148.57,25.57c-2.25.45-4.12,1.52-5.62,3.24.48.2,1.01.31,1.57.31,2.1,0,3.82-1.55,4.05-3.55Z"/>
      <path class="cls-2" d="M141.27,22.68c-.47.6-.76,1.32-.83,2.12h4.94c-1.49-.46-2.92-1.04-4.11-2.12Z"/>
      <path class="cls-2" d="M140.45,25.42c.06.79.36,1.52.83,2.12,1.19-1.07,2.61-1.66,4.09-2.12h-4.92Z"/>
      <path class="cls-2" d="M145.13,26.18c-1.26.38-2.45.89-3.44,1.81.21.2.45.38.71.54.78-.94,1.7-1.7,2.74-2.35Z"/>
      <path class="cls-2" d="M142.39,21.7c-.25.15-.48.33-.69.53,1.01.94,2.22,1.45,3.5,1.84-1.06-.64-2-1.4-2.8-2.37Z"/>
    </g>
  </g>
  <g>
    <circle cx="24.51" cy="65.11" r="10"/>
    <g>
      <path class="cls-2" d="M28.57,64.66c-.23-2-1.96-3.55-4.05-3.55-.55,0-1.08.11-1.57.31,1.5,1.72,3.36,2.79,5.62,3.24Z"/>
      <path class="cls-2" d="M28.57,65.57c-2.25.45-4.12,1.52-5.62,3.24.48.2,1.01.31,1.57.31,2.1,0,3.82-1.55,4.05-3.55Z"/>
      <path class="cls-2" d="M21.27,62.68c-.47.6-.76,1.32-.83,2.12h4.94c-1.49-.46-2.92-1.04-4.11-2.12Z"/>
      <path class="cls-2" d="M20.45,65.42c.06.79.36,1.52.83,2.12,1.19-1.07,2.61-1.66,4.09-2.12h-4.92Z"/>
      <path class="cls-2" d="M25.13,66.18c-1.26.38-2.45.89-3.44,1.81.21.2.45.38.71.54.78-.94,1.7-1.7,2.74-2.35Z"/>
      <path class="cls-2" d="M22.39,61.7c-.25.15-.48.33-.69.53,1.01.94,2.22,1.45,3.5,1.84-1.06-.64-2-1.4-2.8-2.37Z"/>
    </g>
  </g>
  <g>
    <circle cx="24.51" cy="105.11" r="10"/>
    <g>
      <path class="cls-2" d="M28.57,104.66c-.23-2-1.96-3.55-4.05-3.55-.55,0-1.08.11-1.57.31,1.5,1.72,3.36,2.79,5.62,3.24Z"/>
      <path class="cls-2" d="M28.57,105.57c-2.25.45-4.12,1.52-5.62,3.24.48.2,1.01.31,1.57.31,2.1,0,3.82-1.55,4.05-3.55Z"/>
      <path class="cls-2" d="M21.27,102.68c-.47.6-.76,1.32-.83,2.12h4.94c-1.49-.46-2.92-1.04-4.11-2.12Z"/>
      <path class="cls-2" d="M20.45,105.42c.06.79.36,1.52.83,2.12,1.19-1.07,2.61-1.66,4.09-2.12h-4.92Z"/>
      <path class="cls-2" d="M25.13,106.18c-1.26.38-2.45.89-3.44,1.81.21.2.45.38.71.54.78-.94,1.7-1.7,2.74-2.35Z"/>
      <path class="cls-2" d="M22.39,101.7c-.25.15-.48.33-.69.53,1.01.94,2.22,1.45,3.5,1.84-1.06-.64-2-1.4-2.8-2.37Z"/>
    </g>
  </g>
  <g>
    <circle cx="24.51" cy="145.11" r="10"/>
    <g>
      <path class="cls-2" d="M28.57,144.66c-.23-2-1.96-3.55-4.05-3.55-.55,0-1.08.11-1.57.31,1.5,1.72,3.36,2.79,5.62,3.24Z"/>
      <path class="cls-2" d="M28.57,145.57c-2.25.45-4.12,1.52-5.62,3.24.48.2,1.01.31,1.57.31,2.1,0,3.82-1.55,4.05-3.55Z"/>
      <path class="cls-2" d="M21.27,142.68c-.47.6-.76,1.32-.83,2.12h4.94c-1.49-.46-2.92-1.04-4.11-2.12Z"/>
      <path class="cls-2" d="M20.45,145.42c.06.79.36,1.52.83,2.12,1.19-1.07,2.61-1.66,4.09-2.12h-4.92Z"/>
      <path class="cls-2" d="M25.13,146.18c-1.26.38-2.45.89-3.44,1.81.21.2.45.38.71.54.78-.94,1.7-1.7,2.74-2.35Z"/>
      <path class="cls-2" d="M22.39,141.7c-.25.15-.48.33-.69.53,1.01.94,2.22,1.45,3.5,1.84-1.06-.64-2-1.4-2.8-2.37Z"/>
    </g>
  </g>
  <g>
    <circle cx="64.51" cy="65.11" r="10"/>
    <g>
      <path class="cls-2" d="M68.57,64.66c-.23-2-1.96-3.55-4.05-3.55-.55,0-1.08.11-1.57.31,1.5,1.72,3.36,2.79,5.62,3.24Z"/>
      <path class="cls-2" d="M68.57,65.57c-2.25.45-4.12,1.52-5.62,3.24.48.2,1.01.31,1.57.31,2.1,0,3.82-1.55,4.05-3.55Z"/>
      <path class="cls-2" d="M61.27,62.68c-.47.6-.76,1.32-.83,2.12h4.94c-1.49-.46-2.92-1.04-4.11-2.12Z"/>
      <path class="cls-2" d="M60.45,65.42c.06.79.36,1.52.83,2.12,1.19-1.07,2.61-1.66,4.09-2.12h-4.92Z"/>
      <path class="cls-2" d="M65.13,66.18c-1.26.38-2.45.89-3.44,1.81.21.2.45.38.71.54.78-.94,1.7-1.7,2.74-2.35Z"/>
      <path class="cls-2" d="M62.39,61.7c-.25.15-.48.33-.69.53,1.01.94,2.22,1.45,3.5,1.84-1.06-.64-2-1.4-2.8-2.37Z"/>
    </g>
  </g>
  <g>
    <circle cx="104.51" cy="65.11" r="10"/>
    <g>
      <path class="cls-2" d="M108.57,64.66c-.23-2-1.96-3.55-4.05-3.55-.55,0-1.08.11-1.57.31,1.5,1.72,3.36,2.79,5.62,3.24Z"/>
      <path class="cls-2" d="M108.57,65.57c-2.25.45-4.12,1.52-5.62,3.24.48.2,1.01.31,1.57.31,2.1,0,3.82-1.55,4.05-3.55Z"/>
      <path class="cls-2" d="M101.27,62.68c-.47.6-.76,1.32-.83,2.12h4.94c-1.49-.46-2.92-1.04-4.11-2.12Z"/>
      <path class="cls-2" d="M100.45,65.42c.06.79.36,1.52.83,2.12,1.19-1.07,2.61-1.66,4.09-2.12h-4.92Z"/>
      <path class="cls-2" d="M105.13,66.18c-1.26.38-2.45.89-3.44,1.81.21.2.45.38.71.54.78-.94,1.7-1.7,2.74-2.35Z"/>
      <path class="cls-2" d="M102.39,61.7c-.25.15-.48.33-.69.53,1.01.94,2.22,1.45,3.5,1.84-1.06-.64-2-1.4-2.8-2.37Z"/>
    </g>
  </g>
  <g>
    <circle cx="64.51" cy="105.11" r="10"/>
    <g>
      <path class="cls-2" d="M68.57,104.66c-.23-2-1.96-3.55-4.05-3.55-.55,0-1.08.11-1.57.31,1.5,1.72,3.36,2.79,5.62,3.24Z"/>
      <path class="cls-2" d="M68.57,105.57c-2.25.45-4.12,1.52-5.62,3.24.48.2,1.01.31,1.57.31,2.1,0,3.82-1.55,4.05-3.55Z"/>
      <path class="cls-2" d="M61.27,102.68c-.47.6-.76,1.32-.83,2.12h4.94c-1.49-.46-2.92-1.04-4.11-2.12Z"/>
      <path class="cls-2" d="M60.45,105.42c.06.79.36,1.52.83,2.12,1.19-1.07,2.61-1.66,4.09-2.12h-4.92Z"/>
      <path class="cls-2" d="M65.13,106.18c-1.26.38-2.45.89-3.44,1.81.21.2.45.38.71.54.78-.94,1.7-1.7,2.74-2.35Z"/>
      <path class="cls-2" d="M62.39,101.7c-.25.15-.48.33-.69.53,1.01.94,2.22,1.45,3.5,1.84-1.06-.64-2-1.4-2.8-2.37Z"/>
    </g>
  </g>
  <g>
    <circle cx="104.51" cy="105.11" r="10"/>
    <g>
      <path class="cls-2" d="M108.57,104.66c-.23-2-1.96-3.55-4.05-3.55-.55,0-1.08.11-1.57.31,1.5,1.72,3.36,2.79,5.62,3.24Z"/>
      <path class="cls-2" d="M108.57,105.57c-2.25.45-4.12,1.52-5.62,3.24.48.2,1.01.31,1.57.31,2.1,0,3.82-1.55,4.05-3.55Z"/>
      <path class="cls-2" d="M101.27,102.68c-.47.6-.76,1.32-.83,2.12h4.94c-1.49-.46-2.92-1.04-4.11-2.12Z"/>
      <path class="cls-2" d="M100.45,105.42c.06.79.36,1.52.83,2.12,1.19-1.07,2.61-1.66,4.09-2.12h-4.92Z"/>
      <path class="cls-2" d="M105.13,106.18c-1.26.38-2.45.89-3.44,1.81.21.2.45.38.71.54.78-.94,1.7-1.7,2.74-2.35Z"/>
      <path class="cls-2" d="M102.39,101.7c-.25.15-.48.33-.69.53,1.01.94,2.22,1.45,3.5,1.84-1.06-.64-2-1.4-2.8-2.37Z"/>
    </g>
  </g>
  <g>
    <circle cx="64.51" cy="145.11" r="10"/>
    <g>
      <path class="cls-2" d="M68.57,144.66c-.23-2-1.96-3.55-4.05-3.55-.55,0-1.08.11-1.57.31,1.5,1.72,3.36,2.79,5.62,3.24Z"/>
      <path class="cls-2" d="M68.57,145.57c-2.25.45-4.12,1.52-5.62,3.24.48.2,1.01.31,1.57.31,2.1,0,3.82-1.55,4.05-3.55Z"/>
      <path class="cls-2" d="M61.27,142.68c-.47.6-.76,1.32-.83,2.12h4.94c-1.49-.46-2.92-1.04-4.11-2.12Z"/>
      <path class="cls-2" d="M60.45,145.42c.06.79.36,1.52.83,2.12,1.19-1.07,2.61-1.66,4.09-2.12h-4.92Z"/>
      <path class="cls-2" d="M65.13,146.18c-1.26.38-2.45.89-3.44,1.81.21.2.45.38.71.54.78-.94,1.7-1.7,2.74-2.35Z"/>
      <path class="cls-2" d="M62.39,141.7c-.25.15-.48.33-.69.53,1.01.94,2.22,1.45,3.5,1.84-1.06-.64-2-1.4-2.8-2.37Z"/>
    </g>
  </g>
  <g>
    <circle cx="104.51" cy="145.11" r="10"/>
    <g>
      <path class="cls-2" d="M108.57,144.66c-.23-2-1.96-3.55-4.05-3.55-.55,0-1.08.11-1.57.31,1.5,1.72,3.36,2.79,5.62,3.24Z"/>
      <path class="cls-2" d="M108.57,145.57c-2.25.45-4.12,1.52-5.62,3.24.48.2,1.01.31,1.57.31,2.1,0,3.82-1.55,4.05-3.55Z"/>
      <path class="cls-2" d="M101.27,142.68c-.47.6-.76,1.32-.83,2.12h4.94c-1.49-.46-2.92-1.04-4.11-2.12Z"/>
      <path class="cls-2" d="M100.45,145.42c.06.79.36,1.52.83,2.12,1.19-1.07,2.61-1.66,4.09-2.12h-4.92Z"/>
      <path class="cls-2" d="M105.13,146.18c-1.26.38-2.45.89-3.44,1.81.21.2.45.38.71.54.78-.94,1.7-1.7,2.74-2.35Z"/>
      <path class="cls-2" d="M102.39,141.7c-.25.15-.48.33-.69.53,1.01.94,2.22,1.45,3.5,1.84-1.06-.64-2-1.4-2.8-2.37Z"/>
    </g>
  </g>
  <g>
    <circle cx="144.51" cy="65.11" r="10"/>
    <g>
      <path class="cls-2" d="M148.57,64.66c-.23-2-1.96-3.55-4.05-3.55-.55,0-1.08.11-1.57.31,1.5,1.72,3.36,2.79,5.62,3.24Z"/>
      <path class="cls-2" d="M148.57,65.57c-2.25.45-4.12,1.52-5.62,3.24.48.2,1.01.31,1.57.31,2.1,0,3.82-1.55,4.05-3.55Z"/>
      <path class="cls-2" d="M141.27,62.68c-.47.6-.76,1.32-.83,2.12h4.94c-1.49-.46-2.92-1.04-4.11-2.12Z"/>
      <path class="cls-2" d="M140.45,65.42c.06.79.36,1.52.83,2.12,1.19-1.07,2.61-1.66,4.09-2.12h-4.92Z"/>
      <path class="cls-2" d="M145.13,66.18c-1.26.38-2.45.89-3.44,1.81.21.2.45.38.71.54.78-.94,1.7-1.7,2.74-2.35Z"/>
      <path class="cls-2" d="M142.39,61.7c-.25.15-.48.33-.69.53,1.01.94,2.22,1.45,3.5,1.84-1.06-.64-2-1.4-2.8-2.37Z"/>
    </g>
  </g>
  <g>
    <circle cx="144.51" cy="105.11" r="10"/>
    <g>
      <path class="cls-2" d="M148.57,104.66c-.23-2-1.96-3.55-4.05-3.55-.55,0-1.08.11-1.57.31,1.5,1.72,3.36,2.79,5.62,3.24Z"/>
      <path class="cls-2" d="M148.57,105.57c-2.25.45-4.12,1.52-5.62,3.24.48.2,1.01.31,1.57.31,2.1,0,3.82-1.55,4.05-3.55Z"/>
      <path class="cls-2" d="M141.27,102.68c-.47.6-.76,1.32-.83,2.12h4.94c-1.49-.46-2.92-1.04-4.11-2.12Z"/>
      <path class="cls-2" d="M140.45,105.42c.06.79.36,1.52.83,2.12,1.19-1.07,2.61-1.66,4.09-2.12h-4.92Z"/>
      <path class="cls-2" d="M145.13,106.18c-1.26.38-2.45.89-3.44,1.81.21.2.45.38.71.54.78-.94,1.7-1.7,2.74-2.35Z"/>
      <path class="cls-2" d="M142.39,101.7c-.25.15-.48.33-.69.53,1.01.94,2.22,1.45,3.5,1.84-1.06-.64-2-1.4-2.8-2.37Z"/>
    </g>
  </g>
  <g>
    <circle cx="144.51" cy="145.11" r="10"/>
    <g>
      <path class="cls-2" d="M148.57,144.66c-.23-2-1.96-3.55-4.05-3.55-.55,0-1.08.11-1.57.31,1.5,1.72,3.36,2.79,5.62,3.24Z"/>
      <path class="cls-2" d="M148.57,145.57c-2.25.45-4.12,1.52-5.62,3.24.48.2,1.01.31,1.57.31,2.1,0,3.82-1.55,4.05-3.55Z"/>
      <path class="cls-2" d="M141.27,142.68c-.47.6-.76,1.32-.83,2.12h4.94c-1.49-.46-2.92-1.04-4.11-2.12Z"/>
      <path class="cls-2" d="M140.45,145.42c.06.79.36,1.52.83,2.12,1.19-1.07,2.61-1.66,4.09-2.12h-4.92Z"/>
      <path class="cls-2" d="M145.13,146.18c-1.26.38-2.45.89-3.44,1.81.21.2.45.38.71.54.78-.94,1.7-1.7,2.74-2.35Z"/>
      <path class="cls-2" d="M142.39,141.7c-.25.15-.48.33-.69.53,1.01.94,2.22,1.45,3.5,1.84-1.06-.64-2-1.4-2.8-2.37Z"/>
    </g>
  </g>
</svg>