<?xml version="1.0" encoding="UTF-8"?>
<svg id="Layer_5" data-name="Layer 5" xmlns="http://www.w3.org/2000/svg" viewBox="0 0 488 290">
  <defs>
    <style>
      .cls-1 {
        opacity: .2;
      }

      .cls-2 {
        opacity: .3;
      }

      .cls-3 {
        fill: red;
      }
    </style>
  </defs>
  <path class="cls-2" d="M324.09,92.56l-197.5,197.49H13.46L267.28,36.23c-4.23,6.34-6.7,13.97-6.7,22.16,0,22.09,17.91,40,40,40,8.32,0,16.05-2.54,22.45-6.89l1.06,1.06Z"/>
  <polygon class="cls-1" points="445.58 85.91 241.45 290.05 128.31 290.05 389.01 29.35 445.58 85.91"/>
  <path d="M285.16,21.91c4.75-1.96,9.95-3.05,15.42-3.05,20.65,0,37.67,15.51,39.93,35.47-22.2-4.48-40.54-15.21-55.35-32.41ZM340.5,63.39c-22.2,4.48-40.54,15.21-55.35,32.41,4.75,1.96,9.95,3.05,15.42,3.05,20.65,0,37.67-15.51,39.93-35.47ZM268.65,34.57c-4.59,5.96-7.53,13.24-8.14,21.17h48.67c-14.7-4.59-28.78-10.44-40.53-21.17ZM260.5,61.94c.61,7.94,3.54,15.23,8.13,21.19,11.69-10.68,25.66-16.57,40.33-21.19h-48.46ZM306.59,69.51c-12.43,3.82-24.14,8.91-33.92,18.13,2.11,2.03,4.45,3.83,6.97,5.37,7.68-9.38,16.78-17.04,26.95-23.5ZM279.6,24.73c-2.47,1.51-4.76,3.27-6.84,5.26,9.93,9.37,21.89,14.46,34.46,18.42-10.41-6.37-19.71-14.04-27.62-23.68Z"/>
  <g>
    <circle cx="414.58" cy="58.39" r="40"/>
    <g>
      <path class="cls-3" d="M430.83,56.57c-.92-7.98-7.83-14.19-16.22-14.19-2.22,0-4.33.43-6.26,1.22,6.01,6.88,13.46,11.17,22.48,12.97Z"/>
      <path class="cls-3" d="M430.83,60.2c-9.02,1.79-16.46,6.08-22.48,12.97,1.93.79,4.04,1.22,6.26,1.22,8.39,0,15.3-6.2,16.22-14.19Z"/>
      <path class="cls-3" d="M401.65,48.67c-1.86,2.38-3.06,5.3-3.31,8.47h19.76c-5.97-1.84-11.69-4.18-16.46-8.47Z"/>
      <path class="cls-3" d="M398.34,59.62c.25,3.18,1.44,6.09,3.3,8.48,4.75-4.27,10.42-6.63,16.38-8.48h-19.68Z"/>
      <path class="cls-3" d="M417.05,62.65c-5.05,1.53-9.8,3.57-13.78,7.25.86.81,1.81,1.53,2.83,2.15,3.12-3.75,6.81-6.82,10.95-9.4Z"/>
      <path class="cls-3" d="M406.09,44.74c-1,.6-1.93,1.31-2.78,2.1,4.03,3.75,8.89,5.78,13.99,7.37-4.23-2.55-8-5.62-11.21-9.47Z"/>
    </g>
  </g>
</svg>