<?xml version="1.0" encoding="UTF-8"?>
<svg id="Layer_2" data-name="Layer 2" xmlns="http://www.w3.org/2000/svg" xmlns:xlink="http://www.w3.org/1999/xlink" viewBox="0 0 150 150">
  <defs>
    <style>
      .cls-1 {
        fill: none;
      }

      .cls-2 {
        fill: #4d4d4d;
      }

      .cls-3 {
        fill: #fff;
      }

      .cls-4 {
        clip-path: url(#clippath);
      }

      .cls-5 {
        fill: url(#New_Pattern_Swatch_3);
      }
    </style>
    <clipPath id="clippath">
      <rect class="cls-1" x="0" y="0" width="100" height="100"/>
    </clipPath>
    <pattern id="New_Pattern_Swatch_3" data-name="New Pattern Swatch 3" x="0" y="0" width="100" height="100" patternTransform="translate(-4 2070)" patternUnits="userSpaceOnUse" viewBox="0 0 100 100">
      <g>
        <rect class="cls-1" width="100" height="100"/>
        <g>
          <rect class="cls-2" x="47.62" y="35.71" width="2.38" height="2.38"/>
          <rect class="cls-2" x="38.09" y="33.33" width="2.38" height="2.38"/>
          <rect class="cls-2" x="33.33" y="30.95" width="2.38" height="2.39"/>
          <rect class="cls-2" x="28.57" y="21.43" width="2.38" height="2.38"/>
          <rect class="cls-2" x="40.47" y="14.28" width="2.38" height="2.38"/>
          <rect class="cls-2" x="35.71" y="9.52" width="2.38" height="2.38"/>
          <rect class="cls-2" x="23.81" y="7.14" width="2.38" height="2.38"/>
          <rect class="cls-2" x="11.9" y="14.28" width="2.38" height="2.38"/>
          <rect class="cls-2" x="16.66" y="16.66" width="2.38" height="2.38"/>
          <rect class="cls-2" x="21.43" y="23.81" width="2.38" height="2.38"/>
          <rect class="cls-2" x="19.05" y="30.95" width="2.38" height="2.39"/>
          <rect class="cls-2" x="7.14" y="40.47" width="2.38" height="2.38"/>
          <rect class="cls-3" x="47.62" y="38.09" width="2.38" height="2.38"/>
          <rect class="cls-3" x="47.62" y="30.95" width="2.38" height="2.39"/>
          <rect class="cls-3" x="47.62" y="19.05" width="2.38" height="2.38"/>
          <rect class="cls-3" x="47.62" y="14.28" width="2.38" height="2.38"/>
          <rect class="cls-3" x="47.62" y="11.9" width="2.38" height="2.38"/>
          <rect class="cls-3" x="47.62" y="2.38" width="2.38" height="2.38"/>
          <rect class="cls-3" x="47.62" y="0" width="2.38" height="2.38"/>
          <rect class="cls-3" x="45.24" y="45.24" width="2.38" height="2.38"/>
          <rect class="cls-3" x="45.24" y="42.85" width="2.38" height="2.38"/>
          <rect class="cls-3" x="45.24" y="33.33" width="2.38" height="2.38"/>
          <rect class="cls-3" x="45.24" y="23.81" width="2.38" height="2.38"/>
          <rect class="cls-3" x="45.24" y="14.28" width="2.38" height="2.38"/>
          <rect class="cls-3" x="45.24" y="11.9" width="2.38" height="2.38"/>
          <rect class="cls-3" x="45.24" y="7.14" width="2.38" height="2.38"/>
          <rect class="cls-3" x="45.24" y="2.38" width="2.38" height="2.38"/>
          <rect class="cls-2" x="45.24" y="0" width="2.38" height="2.38"/>
          <rect class="cls-3" x="42.85" y="45.24" width="2.38" height="2.38"/>
          <rect class="cls-3" x="40.47" y="40.47" width="2.38" height="2.38"/>
          <rect class="cls-3" x="40.47" y="38.09" width="2.38" height="2.38"/>
          <rect class="cls-3" x="40.47" y="26.19" width="2.38" height="2.38"/>
          <rect class="cls-2" x="40.47" y="21.43" width="2.38" height="2.38"/>
          <rect class="cls-3" x="40.47" y="19.05" width="2.38" height="2.38"/>
          <rect class="cls-3" x="40.47" y="7.14" width="2.38" height="2.38"/>
          <rect class="cls-2" x="40.47" y="4.76" width="2.38" height="2.39"/>
          <rect class="cls-3" x="38.09" y="47.62" width="2.38" height="2.38"/>
          <rect class="cls-3" x="38.09" y="40.47" width="2.38" height="2.38"/>
          <rect class="cls-2" x="38.09" y="38.09" width="2.38" height="2.38"/>
          <rect class="cls-3" x="38.09" y="30.95" width="2.38" height="2.39"/>
          <rect class="cls-3" x="38.09" y="21.43" width="2.38" height="2.38"/>
          <rect class="cls-3" x="38.09" y="19.05" width="2.38" height="2.38"/>
          <rect class="cls-3" x="38.09" y="11.9" width="2.38" height="2.38"/>
          <rect class="cls-2" x="38.09" y="7.14" width="2.38" height="2.38"/>
          <rect class="cls-3" x="38.09" y="4.76" width="2.38" height="2.39"/>
          <rect class="cls-3" x="38.09" y="0" width="2.38" height="2.38"/>
          <rect class="cls-3" x="35.71" y="45.24" width="2.38" height="2.38"/>
          <rect class="cls-3" x="35.71" y="42.85" width="2.38" height="2.38"/>
          <rect class="cls-3" x="35.71" y="23.81" width="2.38" height="2.38"/>
          <rect class="cls-3" x="33.33" y="45.24" width="2.38" height="2.38"/>
          <rect class="cls-3" x="33.33" y="42.85" width="2.38" height="2.38"/>
          <rect class="cls-3" x="33.33" y="33.33" width="2.38" height="2.38"/>
          <rect class="cls-3" x="33.33" y="26.19" width="2.38" height="2.38"/>
          <rect class="cls-3" x="33.33" y="21.43" width="2.38" height="2.38"/>
          <rect class="cls-3" x="33.33" y="11.9" width="2.38" height="2.38"/>
          <rect class="cls-3" x="33.33" y="9.52" width="2.38" height="2.38"/>
          <rect class="cls-3" x="33.33" y="4.76" width="2.38" height="2.39"/>
          <rect class="cls-3" x="30.95" y="47.62" width="2.39" height="2.38"/>
          <rect class="cls-3" x="30.95" y="35.71" width="2.39" height="2.38"/>
          <rect class="cls-3" x="30.95" y="28.57" width="2.39" height="2.38"/>
          <rect class="cls-3" x="30.95" y="21.43" width="2.39" height="2.38"/>
          <rect class="cls-3" x="30.95" y="16.66" width="2.39" height="2.38"/>
          <rect class="cls-2" x="30.95" y="11.9" width="2.39" height="2.38"/>
          <rect class="cls-3" x="30.95" y="9.52" width="2.39" height="2.38"/>
          <rect class="cls-3" x="28.57" y="40.47" width="2.38" height="2.38"/>
          <rect class="cls-3" x="28.57" y="30.95" width="2.38" height="2.39"/>
          <rect class="cls-3" x="28.57" y="0" width="2.38" height="2.38"/>
          <rect class="cls-3" x="26.19" y="33.33" width="2.38" height="2.38"/>
          <rect class="cls-3" x="26.19" y="30.95" width="2.38" height="2.39"/>
          <rect class="cls-3" x="26.19" y="28.57" width="2.38" height="2.38"/>
          <rect class="cls-3" x="26.19" y="19.05" width="2.38" height="2.38"/>
          <rect class="cls-3" x="26.19" y="16.66" width="2.38" height="2.38"/>
          <rect class="cls-3" x="26.19" y="9.52" width="2.38" height="2.38"/>
          <rect class="cls-3" x="26.19" y="2.38" width="2.38" height="2.38"/>
          <rect class="cls-3" x="26.19" y="0" width="2.38" height="2.38"/>
          <rect class="cls-3" x="23.81" y="47.62" width="2.38" height="2.38"/>
          <rect class="cls-3" x="23.81" y="45.24" width="2.38" height="2.38"/>
          <rect class="cls-3" x="23.81" y="30.95" width="2.38" height="2.39"/>
          <rect class="cls-3" x="23.81" y="23.81" width="2.38" height="2.38"/>
          <rect class="cls-3" x="23.81" y="19.05" width="2.38" height="2.38"/>
          <rect class="cls-3" x="23.81" y="16.66" width="2.38" height="2.38"/>
          <rect class="cls-3" x="21.43" y="45.24" width="2.38" height="2.38"/>
          <rect class="cls-3" x="21.43" y="40.47" width="2.38" height="2.38"/>
          <rect class="cls-3" x="21.43" y="38.09" width="2.38" height="2.38"/>
          <rect class="cls-3" x="21.43" y="7.14" width="2.38" height="2.38"/>
          <rect class="cls-3" x="21.43" y="4.76" width="2.38" height="2.39"/>
          <rect class="cls-3" x="19.05" y="40.47" width="2.38" height="2.38"/>
          <rect class="cls-3" x="19.05" y="28.57" width="2.38" height="2.38"/>
          <rect class="cls-3" x="19.05" y="23.81" width="2.38" height="2.38"/>
          <rect class="cls-3" x="19.05" y="21.43" width="2.38" height="2.38"/>
          <rect class="cls-3" x="19.05" y="14.28" width="2.38" height="2.38"/>
          <rect class="cls-3" x="16.66" y="45.24" width="2.38" height="2.38"/>
          <rect class="cls-2" x="16.66" y="35.71" width="2.38" height="2.38"/>
          <rect class="cls-3" x="16.66" y="23.81" width="2.38" height="2.38"/>
          <rect class="cls-3" x="16.66" y="21.43" width="2.38" height="2.38"/>
          <rect class="cls-3" x="16.66" y="0" width="2.38" height="2.38"/>
          <rect class="cls-3" x="14.28" y="30.95" width="2.38" height="2.39"/>
          <rect class="cls-3" x="14.28" y="28.57" width="2.38" height="2.38"/>
          <rect class="cls-3" x="14.28" y="19.05" width="2.38" height="2.38"/>
          <rect class="cls-3" x="14.28" y="9.52" width="2.38" height="2.38"/>
          <rect class="cls-3" x="14.28" y="2.38" width="2.38" height="2.38"/>
          <rect class="cls-3" x="11.9" y="47.62" width="2.38" height="2.38"/>
          <rect class="cls-3" x="11.9" y="42.85" width="2.38" height="2.38"/>
          <rect class="cls-3" x="11.9" y="28.57" width="2.38" height="2.38"/>
          <rect class="cls-3" x="11.9" y="23.81" width="2.38" height="2.38"/>
          <rect class="cls-3" x="11.9" y="11.9" width="2.38" height="2.38"/>
          <rect class="cls-3" x="11.9" y="9.52" width="2.38" height="2.38"/>
          <rect class="cls-3" x="9.52" y="47.62" width="2.38" height="2.38"/>
          <rect class="cls-3" x="9.52" y="38.09" width="2.38" height="2.38"/>
          <rect class="cls-3" x="9.52" y="0" width="2.38" height="2.38"/>
          <rect class="cls-2" x="7.14" y="38.09" width="2.38" height="2.38"/>
          <rect class="cls-3" x="7.14" y="35.71" width="2.38" height="2.38"/>
          <rect class="cls-3" x="7.14" y="26.19" width="2.38" height="2.38"/>
          <rect class="cls-3" x="7.14" y="16.66" width="2.38" height="2.38"/>
          <rect class="cls-2" x="7.14" y="14.28" width="2.38" height="2.38"/>
          <rect class="cls-3" x="7.14" y="7.14" width="2.38" height="2.38"/>
          <rect class="cls-3" x="7.14" y="4.76" width="2.38" height="2.39"/>
          <rect class="cls-3" x="4.76" y="45.24" width="2.39" height="2.38"/>
          <rect class="cls-2" x="4.76" y="42.85" width="2.39" height="2.38"/>
          <rect class="cls-3" x="4.76" y="30.95" width="2.39" height="2.39"/>
          <rect class="cls-3" x="4.76" y="16.66" width="2.39" height="2.38"/>
          <rect class="cls-3" x="2.38" y="45.24" width="2.38" height="2.38"/>
          <rect class="cls-3" x="2.38" y="42.85" width="2.38" height="2.38"/>
          <rect class="cls-3" x="2.38" y="35.71" width="2.38" height="2.38"/>
          <rect class="cls-3" x="2.38" y="9.52" width="2.38" height="2.38"/>
          <rect class="cls-3" x="2.38" y="2.38" width="2.38" height="2.38"/>
          <rect class="cls-3" x="0" y="40.47" width="2.38" height="2.38"/>
          <rect class="cls-3" x="0" y="26.19" width="2.38" height="2.38"/>
          <rect class="cls-3" x="0" y="21.43" width="2.38" height="2.38"/>
          <rect class="cls-3" x="0" y="14.28" width="2.38" height="2.38"/>
          <rect class="cls-3" x="0" y="4.76" width="2.38" height="2.39"/>
        </g>
        <g>
          <rect class="cls-2" x="69.05" y="33.33" width="2.38" height="2.38"/>
          <rect class="cls-2" x="64.28" y="40.47" width="2.38" height="2.38"/>
          <rect class="cls-2" x="80.95" y="19.05" width="2.38" height="2.38"/>
          <rect class="cls-2" x="85.71" y="14.29" width="2.38" height="2.38"/>
          <rect class="cls-2" x="90.47" y="7.15" width="2.38" height="2.38"/>
          <rect class="cls-2" x="61.9" y="47.62" width="2.38" height="2.38"/>
          <rect class="cls-2" x="66.66" y="45.24" width="2.39" height="2.38"/>
          <rect class="cls-2" x="76.19" y="45.24" width="2.38" height="2.38"/>
          <rect class="cls-2" x="78.57" y="38.09" width="2.38" height="2.38"/>
          <rect class="cls-2" x="80.95" y="28.57" width="2.38" height="2.38"/>
          <rect class="cls-2" x="83.33" y="9.53" width="2.38" height="2.38"/>
          <rect class="cls-2" x="88.09" y="14.29" width="2.38" height="2.38"/>
          <rect class="cls-2" x="90.47" y="23.81" width="2.38" height="2.38"/>
          <rect class="cls-2" x="78.57" y="42.85" width="2.38" height="2.38"/>
          <rect class="cls-2" x="83.33" y="42.86" width="2.38" height="2.38"/>
          <rect class="cls-2" x="59.52" y="14.28" width="2.38" height="2.38"/>
          <rect class="cls-2" x="64.28" y="7.14" width="2.38" height="2.38"/>
          <rect class="cls-3" x="50" y="9.52" width="2.38" height="2.38"/>
          <rect class="cls-3" x="50" y="16.66" width="2.38" height="2.39"/>
          <rect class="cls-3" x="50" y="28.57" width="2.38" height="2.38"/>
          <rect class="cls-3" x="50" y="33.33" width="2.38" height="2.38"/>
          <rect class="cls-3" x="50" y="35.71" width="2.38" height="2.38"/>
          <rect class="cls-3" x="50" y="45.24" width="2.38" height="2.38"/>
          <rect class="cls-3" x="50" y="47.62" width="2.38" height="2.38"/>
          <rect class="cls-3" x="52.38" y="2.38" width="2.38" height="2.38"/>
          <rect class="cls-3" x="52.38" y="4.76" width="2.38" height="2.38"/>
          <rect class="cls-3" x="52.38" y="14.28" width="2.38" height="2.38"/>
          <rect class="cls-3" x="52.38" y="23.81" width="2.38" height="2.38"/>
          <rect class="cls-3" x="52.38" y="33.33" width="2.38" height="2.38"/>
          <rect class="cls-3" x="52.38" y="35.71" width="2.38" height="2.38"/>
          <rect class="cls-3" x="52.38" y="40.47" width="2.38" height="2.38"/>
          <rect class="cls-3" x="52.38" y="45.24" width="2.38" height="2.38"/>
          <rect class="cls-3" x="52.38" y="47.62" width="2.38" height="2.38"/>
          <rect class="cls-3" x="54.76" y="2.38" width="2.39" height="2.38"/>
          <rect class="cls-3" x="57.14" y="7.14" width="2.38" height="2.38"/>
          <rect class="cls-3" x="57.14" y="9.52" width="2.38" height="2.38"/>
          <rect class="cls-3" x="57.14" y="21.43" width="2.38" height="2.38"/>
          <rect class="cls-3" x="57.14" y="26.19" width="2.38" height="2.38"/>
          <rect class="cls-3" x="57.14" y="28.57" width="2.38" height="2.38"/>
          <rect class="cls-3" x="57.14" y="40.47" width="2.38" height="2.38"/>
          <rect class="cls-3" x="57.14" y="42.85" width="2.38" height="2.38"/>
          <rect class="cls-3" x="59.52" y="0" width="2.38" height="2.38"/>
          <rect class="cls-3" x="59.52" y="9.52" width="2.38" height="2.38"/>
          <rect class="cls-3" x="59.52" y="16.66" width="2.38" height="2.39"/>
          <rect class="cls-3" x="59.52" y="26.19" width="2.38" height="2.38"/>
          <rect class="cls-3" x="59.52" y="35.71" width="2.38" height="2.38"/>
          <rect class="cls-3" x="59.52" y="40.47" width="2.38" height="2.38"/>
          <rect class="cls-3" x="59.52" y="42.85" width="2.38" height="2.38"/>
          <rect class="cls-3" x="59.52" y="47.62" width="2.38" height="2.38"/>
          <rect class="cls-3" x="61.9" y="2.38" width="2.38" height="2.38"/>
          <rect class="cls-3" x="61.9" y="4.76" width="2.38" height="2.38"/>
          <rect class="cls-3" x="61.9" y="23.81" width="2.38" height="2.38"/>
          <rect class="cls-3" x="64.28" y="2.38" width="2.38" height="2.38"/>
          <rect class="cls-3" x="64.28" y="4.76" width="2.38" height="2.38"/>
          <rect class="cls-3" x="64.28" y="14.28" width="2.38" height="2.38"/>
          <rect class="cls-3" x="64.28" y="21.43" width="2.38" height="2.38"/>
          <rect class="cls-3" x="64.28" y="26.19" width="2.38" height="2.38"/>
          <rect class="cls-3" x="64.28" y="35.71" width="2.38" height="2.38"/>
          <rect class="cls-2" x="64.28" y="38.09" width="2.38" height="2.38"/>
          <rect class="cls-3" x="64.28" y="42.85" width="2.38" height="2.38"/>
          <rect class="cls-3" x="66.66" y="0" width="2.38" height="2.38"/>
          <rect class="cls-3" x="66.66" y="11.9" width="2.38" height="2.38"/>
          <rect class="cls-3" x="66.66" y="19.05" width="2.38" height="2.38"/>
          <rect class="cls-3" x="66.66" y="26.19" width="2.38" height="2.38"/>
          <rect class="cls-3" x="66.66" y="30.95" width="2.39" height="2.39"/>
          <rect class="cls-3" x="66.66" y="35.71" width="2.38" height="2.38"/>
          <rect class="cls-2" x="66.66" y="38.09" width="2.38" height="2.38"/>
          <rect class="cls-3" x="69.05" y="7.14" width="2.38" height="2.38"/>
          <rect class="cls-2" x="69.05" y="16.66" width="2.38" height="2.39"/>
          <rect class="cls-3" x="69.05" y="47.62" width="2.38" height="2.38"/>
          <rect class="cls-3" x="71.43" y="14.28" width="2.38" height="2.38"/>
          <rect class="cls-3" x="71.43" y="19.05" width="2.38" height="2.38"/>
          <rect class="cls-3" x="71.43" y="28.57" width="2.38" height="2.38"/>
          <rect class="cls-3" x="71.43" y="30.95" width="2.38" height="2.38"/>
          <rect class="cls-3" x="71.43" y="38.09" width="2.38" height="2.38"/>
          <rect class="cls-3" x="71.43" y="45.24" width="2.38" height="2.38"/>
          <rect class="cls-3" x="71.43" y="47.62" width="2.38" height="2.38"/>
          <rect class="cls-3" x="73.81" y="0" width="2.38" height="2.38"/>
          <rect class="cls-3" x="73.81" y="2.38" width="2.38" height="2.38"/>
          <rect class="cls-3" x="73.81" y="16.66" width="2.38" height="2.39"/>
          <rect class="cls-3" x="73.81" y="23.81" width="2.38" height="2.38"/>
          <rect class="cls-3" x="73.81" y="28.57" width="2.38" height="2.38"/>
          <rect class="cls-3" x="73.81" y="30.95" width="2.38" height="2.38"/>
          <rect class="cls-3" x="76.19" y="2.38" width="2.38" height="2.38"/>
          <rect class="cls-3" x="76.19" y="7.14" width="2.38" height="2.38"/>
          <rect class="cls-3" x="76.19" y="9.52" width="2.38" height="2.38"/>
          <rect class="cls-3" x="76.19" y="40.47" width="2.38" height="2.38"/>
          <rect class="cls-3" x="76.19" y="42.85" width="2.38" height="2.38"/>
          <rect class="cls-3" x="78.57" y="7.14" width="2.38" height="2.38"/>
          <rect class="cls-3" x="78.57" y="19.05" width="2.38" height="2.38"/>
          <rect class="cls-3" x="78.57" y="23.81" width="2.38" height="2.38"/>
          <rect class="cls-3" x="78.57" y="26.19" width="2.38" height="2.38"/>
          <rect class="cls-2" x="78.57" y="33.33" width="2.38" height="2.38"/>
          <rect class="cls-3" x="80.95" y="2.38" width="2.38" height="2.38"/>
          <rect class="cls-3" x="80.95" y="11.9" width="2.38" height="2.38"/>
          <rect class="cls-2" x="80.95" y="23.81" width="2.38" height="2.38"/>
          <rect class="cls-3" x="80.95" y="26.19" width="2.38" height="2.38"/>
          <rect class="cls-3" x="80.95" y="47.62" width="2.38" height="2.38"/>
          <rect class="cls-3" x="83.33" y="16.67" width="2.38" height="2.39"/>
          <rect class="cls-3" x="83.33" y="19.05" width="2.38" height="2.38"/>
          <rect class="cls-3" x="83.33" y="28.57" width="2.38" height="2.38"/>
          <rect class="cls-3" x="83.33" y="38.1" width="2.38" height="2.38"/>
          <rect class="cls-3" x="83.33" y="45.24" width="2.38" height="2.38"/>
          <rect class="cls-3" x="85.71" y="0" width="2.38" height="2.38"/>
          <rect class="cls-3" x="85.71" y="4.76" width="2.38" height="2.38"/>
          <rect class="cls-3" x="85.71" y="16.67" width="2.38" height="2.39"/>
          <rect class="cls-2" x="85.71" y="19.05" width="2.38" height="2.38"/>
          <rect class="cls-3" x="85.71" y="23.81" width="2.38" height="2.38"/>
          <rect class="cls-3" x="85.71" y="35.72" width="2.38" height="2.38"/>
          <rect class="cls-3" x="85.71" y="38.1" width="2.38" height="2.38"/>
          <rect class="cls-3" x="88.09" y="0" width="2.38" height="2.38"/>
          <rect class="cls-2" x="88.09" y="9.53" width="2.38" height="2.38"/>
          <rect class="cls-2" x="88.09" y="11.91" width="2.38" height="2.38"/>
          <rect class="cls-3" x="88.09" y="47.62" width="2.38" height="2.38"/>
          <rect class="cls-3" x="90.47" y="9.53" width="2.38" height="2.38"/>
          <rect class="cls-3" x="90.47" y="11.91" width="2.38" height="2.38"/>
          <rect class="cls-3" x="90.47" y="21.43" width="2.38" height="2.38"/>
          <rect class="cls-3" x="90.47" y="30.95" width="2.38" height="2.38"/>
          <rect class="cls-3" x="90.47" y="33.34" width="2.38" height="2.38"/>
          <rect class="cls-3" x="90.47" y="40.48" width="2.38" height="2.38"/>
          <rect class="cls-3" x="90.47" y="42.86" width="2.38" height="2.38"/>
          <rect class="cls-3" x="92.85" y="2.38" width="2.39" height="2.38"/>
          <rect class="cls-3" x="92.85" y="4.76" width="2.39" height="2.39"/>
          <rect class="cls-3" x="92.85" y="16.67" width="2.39" height="2.39"/>
          <rect class="cls-3" x="92.85" y="30.95" width="2.39" height="2.39"/>
          <rect class="cls-2" x="95.24" y="2.38" width="2.38" height="2.38"/>
          <rect class="cls-3" x="95.24" y="4.76" width="2.38" height="2.38"/>
          <rect class="cls-3" x="95.24" y="11.91" width="2.38" height="2.38"/>
          <rect class="cls-3" x="95.24" y="38.1" width="2.38" height="2.38"/>
          <rect class="cls-3" x="95.24" y="45.24" width="2.38" height="2.38"/>
          <rect class="cls-3" x="97.62" y="7.15" width="2.38" height="2.38"/>
          <rect class="cls-3" x="97.62" y="21.43" width="2.38" height="2.38"/>
          <rect class="cls-3" x="97.62" y="26.19" width="2.38" height="2.38"/>
          <rect class="cls-3" x="97.62" y="33.34" width="2.38" height="2.38"/>
          <rect class="cls-3" x="97.62" y="42.86" width="2.38" height="2.38"/>
        </g>
        <g>
          <rect class="cls-2" x="42.85" y="97.62" width="2.39" height="2.38"/>
          <rect class="cls-2" x="42.85" y="76.19" width="2.39" height="2.38"/>
          <rect class="cls-2" x="7.14" y="52.38" width="2.38" height="2.38"/>
          <rect class="cls-2" x="21.43" y="50" width="2.38" height="2.38"/>
          <rect class="cls-2" x="42.85" y="54.76" width="2.39" height="2.38"/>
          <rect class="cls-2" x="4.76" y="85.71" width="2.38" height="2.38"/>
          <rect class="cls-2" x="19.05" y="92.85" width="2.38" height="2.39"/>
          <rect class="cls-2" x="42.85" y="85.71" width="2.39" height="2.38"/>
          <rect class="cls-2" x="35.71" y="83.33" width="2.38" height="2.38"/>
          <rect class="cls-2" x="33.33" y="80.95" width="2.38" height="2.39"/>
          <rect class="cls-2" x="26.19" y="78.57" width="2.38" height="2.38"/>
          <rect class="cls-2" x="33.33" y="61.9" width="2.38" height="2.38"/>
          <rect class="cls-2" x="33.33" y="59.52" width="2.38" height="2.38"/>
          <rect class="cls-2" x="35.71" y="59.52" width="2.38" height="2.38"/>
          <rect class="cls-2" x="23.81" y="54.76" width="2.38" height="2.38"/>
          <rect class="cls-2" x="4.76" y="61.9" width="2.38" height="2.38"/>
          <rect class="cls-2" x="14.28" y="61.9" width="2.38" height="2.38"/>
          <rect class="cls-3" x="0" y="59.52" width="2.38" height="2.38"/>
          <rect class="cls-3" x="0" y="66.66" width="2.38" height="2.39"/>
          <rect class="cls-3" x="0" y="78.57" width="2.38" height="2.38"/>
          <rect class="cls-3" x="0" y="83.33" width="2.38" height="2.38"/>
          <rect class="cls-3" x="0" y="85.71" width="2.38" height="2.38"/>
          <rect class="cls-3" x="0" y="95.24" width="2.38" height="2.38"/>
          <rect class="cls-3" x="0" y="97.62" width="2.38" height="2.38"/>
          <rect class="cls-3" x="2.38" y="52.38" width="2.38" height="2.38"/>
          <rect class="cls-3" x="2.38" y="54.76" width="2.38" height="2.38"/>
          <rect class="cls-3" x="2.38" y="64.28" width="2.38" height="2.38"/>
          <rect class="cls-3" x="2.38" y="73.81" width="2.38" height="2.38"/>
          <rect class="cls-3" x="2.38" y="83.33" width="2.38" height="2.38"/>
          <rect class="cls-3" x="2.38" y="85.71" width="2.38" height="2.38"/>
          <rect class="cls-3" x="2.38" y="90.47" width="2.38" height="2.38"/>
          <rect class="cls-3" x="2.38" y="95.24" width="2.38" height="2.38"/>
          <rect class="cls-3" x="2.38" y="97.62" width="2.38" height="2.38"/>
          <rect class="cls-3" x="4.76" y="52.38" width="2.38" height="2.38"/>
          <rect class="cls-3" x="7.14" y="57.14" width="2.38" height="2.38"/>
          <rect class="cls-3" x="7.14" y="59.52" width="2.38" height="2.38"/>
          <rect class="cls-3" x="7.14" y="71.43" width="2.38" height="2.38"/>
          <rect class="cls-3" x="7.14" y="76.19" width="2.38" height="2.38"/>
          <rect class="cls-3" x="7.14" y="90.47" width="2.38" height="2.38"/>
          <rect class="cls-3" x="7.14" y="92.85" width="2.38" height="2.39"/>
          <rect class="cls-3" x="9.52" y="50" width="2.38" height="2.38"/>
          <rect class="cls-3" x="9.52" y="57.14" width="2.38" height="2.38"/>
          <rect class="cls-3" x="9.52" y="59.52" width="2.38" height="2.38"/>
          <rect class="cls-3" x="9.52" y="66.66" width="2.38" height="2.39"/>
          <rect class="cls-3" x="9.52" y="76.19" width="2.38" height="2.38"/>
          <rect class="cls-3" x="9.52" y="78.57" width="2.38" height="2.38"/>
          <rect class="cls-3" x="9.52" y="85.71" width="2.38" height="2.38"/>
          <rect class="cls-3" x="9.52" y="90.47" width="2.38" height="2.38"/>
          <rect class="cls-3" x="9.52" y="92.85" width="2.38" height="2.39"/>
          <rect class="cls-3" x="9.52" y="97.62" width="2.38" height="2.38"/>
          <rect class="cls-3" x="11.9" y="52.38" width="2.38" height="2.38"/>
          <rect class="cls-3" x="11.9" y="54.76" width="2.38" height="2.38"/>
          <rect class="cls-3" x="11.9" y="73.81" width="2.38" height="2.38"/>
          <rect class="cls-3" x="14.28" y="52.38" width="2.38" height="2.38"/>
          <rect class="cls-3" x="14.28" y="54.76" width="2.38" height="2.38"/>
          <rect class="cls-3" x="14.28" y="64.28" width="2.38" height="2.38"/>
          <rect class="cls-3" x="14.28" y="71.43" width="2.38" height="2.38"/>
          <rect class="cls-3" x="14.28" y="76.19" width="2.38" height="2.38"/>
          <rect class="cls-3" x="14.28" y="85.71" width="2.38" height="2.38"/>
          <rect class="cls-3" x="14.28" y="88.09" width="2.38" height="2.38"/>
          <rect class="cls-3" x="14.28" y="92.85" width="2.38" height="2.39"/>
          <rect class="cls-3" x="16.66" y="50" width="2.39" height="2.38"/>
          <rect class="cls-3" x="16.66" y="61.9" width="2.39" height="2.38"/>
          <rect class="cls-3" x="16.66" y="69.05" width="2.39" height="2.38"/>
          <rect class="cls-3" x="16.66" y="76.19" width="2.39" height="2.38"/>
          <rect class="cls-3" x="16.66" y="80.95" width="2.39" height="2.39"/>
          <rect class="cls-3" x="16.66" y="85.71" width="2.39" height="2.38"/>
          <rect class="cls-3" x="16.66" y="88.09" width="2.39" height="2.38"/>
          <rect class="cls-3" x="19.05" y="57.14" width="2.38" height="2.38"/>
          <rect class="cls-3" x="19.05" y="66.66" width="2.38" height="2.39"/>
          <rect class="cls-3" x="19.05" y="97.62" width="2.38" height="2.38"/>
          <rect class="cls-3" x="21.43" y="64.28" width="2.38" height="2.38"/>
          <rect class="cls-3" x="21.43" y="69.05" width="2.38" height="2.38"/>
          <rect class="cls-3" x="21.43" y="78.57" width="2.38" height="2.38"/>
          <rect class="cls-3" x="21.43" y="80.95" width="2.38" height="2.39"/>
          <rect class="cls-3" x="21.43" y="88.09" width="2.38" height="2.38"/>
          <rect class="cls-3" x="21.43" y="95.24" width="2.38" height="2.38"/>
          <rect class="cls-3" x="21.43" y="97.62" width="2.38" height="2.38"/>
          <rect class="cls-3" x="23.81" y="50" width="2.38" height="2.38"/>
          <rect class="cls-3" x="23.81" y="52.38" width="2.38" height="2.38"/>
          <rect class="cls-3" x="23.81" y="66.66" width="2.38" height="2.39"/>
          <rect class="cls-3" x="23.81" y="73.81" width="2.38" height="2.38"/>
          <rect class="cls-3" x="23.81" y="78.57" width="2.38" height="2.38"/>
          <rect class="cls-3" x="23.81" y="80.95" width="2.38" height="2.39"/>
          <rect class="cls-3" x="26.19" y="52.38" width="2.38" height="2.38"/>
          <rect class="cls-3" x="26.19" y="57.14" width="2.38" height="2.38"/>
          <rect class="cls-3" x="26.19" y="59.52" width="2.38" height="2.38"/>
          <rect class="cls-3" x="26.19" y="90.47" width="2.38" height="2.38"/>
          <rect class="cls-3" x="26.19" y="92.85" width="2.38" height="2.39"/>
          <rect class="cls-3" x="28.57" y="57.14" width="2.38" height="2.38"/>
          <rect class="cls-3" x="28.57" y="69.05" width="2.38" height="2.38"/>
          <rect class="cls-3" x="28.57" y="73.81" width="2.38" height="2.38"/>
          <rect class="cls-3" x="28.57" y="76.19" width="2.38" height="2.38"/>
          <rect class="cls-3" x="28.57" y="83.33" width="2.38" height="2.38"/>
          <rect class="cls-3" x="30.95" y="52.38" width="2.39" height="2.38"/>
          <rect class="cls-3" x="30.95" y="61.9" width="2.39" height="2.38"/>
          <rect class="cls-3" x="30.95" y="76.19" width="2.39" height="2.38"/>
          <rect class="cls-3" x="30.95" y="97.62" width="2.39" height="2.38"/>
          <rect class="cls-3" x="33.33" y="66.66" width="2.38" height="2.39"/>
          <rect class="cls-3" x="33.33" y="69.05" width="2.38" height="2.38"/>
          <rect class="cls-3" x="33.33" y="78.57" width="2.38" height="2.38"/>
          <rect class="cls-3" x="33.33" y="88.09" width="2.38" height="2.38"/>
          <rect class="cls-3" x="33.33" y="95.24" width="2.38" height="2.38"/>
          <rect class="cls-3" x="35.71" y="50" width="2.38" height="2.38"/>
          <rect class="cls-3" x="35.71" y="54.76" width="2.38" height="2.38"/>
          <rect class="cls-3" x="35.71" y="66.66" width="2.38" height="2.39"/>
          <rect class="cls-3" x="35.71" y="69.05" width="2.38" height="2.38"/>
          <rect class="cls-3" x="35.71" y="73.81" width="2.38" height="2.38"/>
          <rect class="cls-3" x="35.71" y="85.71" width="2.38" height="2.38"/>
          <rect class="cls-3" x="35.71" y="88.09" width="2.38" height="2.38"/>
          <rect class="cls-3" x="38.09" y="50" width="2.38" height="2.38"/>
          <rect class="cls-3" x="38.09" y="59.52" width="2.38" height="2.38"/>
          <rect class="cls-3" x="38.09" y="97.62" width="2.38" height="2.38"/>
          <rect class="cls-3" x="40.47" y="59.52" width="2.38" height="2.38"/>
          <rect class="cls-3" x="40.47" y="61.9" width="2.38" height="2.38"/>
          <rect class="cls-3" x="40.47" y="71.43" width="2.38" height="2.38"/>
          <rect class="cls-3" x="40.47" y="80.95" width="2.38" height="2.39"/>
          <rect class="cls-3" x="40.47" y="83.33" width="2.38" height="2.38"/>
          <rect class="cls-3" x="40.47" y="90.47" width="2.38" height="2.38"/>
          <rect class="cls-3" x="40.47" y="92.85" width="2.38" height="2.39"/>
          <rect class="cls-3" x="42.85" y="52.38" width="2.39" height="2.38"/>
          <rect class="cls-3" x="42.85" y="66.66" width="2.39" height="2.39"/>
          <rect class="cls-3" x="42.85" y="80.95" width="2.39" height="2.39"/>
          <rect class="cls-3" x="45.24" y="52.38" width="2.38" height="2.38"/>
          <rect class="cls-3" x="45.24" y="54.76" width="2.38" height="2.38"/>
          <rect class="cls-3" x="45.24" y="61.9" width="2.38" height="2.38"/>
          <rect class="cls-3" x="45.24" y="88.09" width="2.38" height="2.38"/>
          <rect class="cls-3" x="45.24" y="95.24" width="2.38" height="2.38"/>
          <rect class="cls-3" x="47.62" y="57.14" width="2.38" height="2.38"/>
          <rect class="cls-3" x="47.62" y="71.43" width="2.38" height="2.38"/>
          <rect class="cls-3" x="47.62" y="76.19" width="2.38" height="2.38"/>
          <rect class="cls-3" x="47.62" y="83.33" width="2.38" height="2.38"/>
          <rect class="cls-3" x="47.62" y="92.85" width="2.38" height="2.39"/>
        </g>
        <g class="cls-4">
          <g>
            <rect class="cls-2" x="97.62" y="59.53" width="2.38" height="2.38"/>
            <rect class="cls-2" x="59.52" y="69.05" width="2.38" height="2.38"/>
            <rect class="cls-2" x="57.14" y="71.43" width="2.38" height="2.38"/>
            <rect class="cls-2" x="57.14" y="73.81" width="2.38" height="2.38"/>
            <rect class="cls-2" x="59.52" y="73.81" width="2.38" height="2.38"/>
            <rect class="cls-2" x="61.9" y="76.19" width="2.38" height="2.38"/>
            <rect class="cls-2" x="66.66" y="80.95" width="2.38" height="2.38"/>
            <rect class="cls-2" x="61.9" y="85.71" width="2.38" height="2.38"/>
            <rect class="cls-2" x="71.43" y="85.71" width="2.38" height="2.38"/>
            <rect class="cls-2" x="76.19" y="76.19" width="2.38" height="2.38"/>
            <rect class="cls-2" x="83.33" y="85.72" width="2.38" height="2.38"/>
            <rect class="cls-2" x="85.71" y="88.1" width="2.38" height="2.38"/>
            <rect class="cls-2" x="92.85" y="88.1" width="2.38" height="2.38"/>
            <rect class="cls-2" x="90.47" y="78.57" width="2.38" height="2.38"/>
            <rect class="cls-2" x="85.72" y="59.53" width="2.38" height="2.38"/>
            <rect class="cls-2" x="71.43" y="59.52" width="2.38" height="2.38"/>
            <rect class="cls-2" x="59.53" y="59.52" width="2.38" height="2.38"/>
            <rect class="cls-2" x="59.52" y="66.66" width="2.38" height="2.39"/>
            <rect class="cls-2" x="64.28" y="76.19" width="2.38" height="2.38"/>
            <rect class="cls-2" x="66.66" y="69.05" width="2.38" height="2.38"/>
            <rect class="cls-2" x="66.66" y="64.28" width="2.38" height="2.38"/>
            <rect class="cls-3" x="97.62" y="88.1" width="2.38" height="2.38"/>
            <rect class="cls-3" x="97.62" y="80.95" width="2.38" height="2.38"/>
            <rect class="cls-3" x="97.62" y="69.05" width="2.38" height="2.38"/>
            <rect class="cls-3" x="97.62" y="64.29" width="2.38" height="2.38"/>
            <rect class="cls-3" x="97.62" y="61.91" width="2.38" height="2.38"/>
            <rect class="cls-3" x="97.62" y="52.38" width="2.38" height="2.38"/>
            <rect class="cls-3" x="97.62" y="50" width="2.38" height="2.38"/>
            <rect class="cls-3" x="95.24" y="95.24" width="2.38" height="2.38"/>
            <rect class="cls-3" x="95.24" y="92.86" width="2.38" height="2.38"/>
            <rect class="cls-3" x="95.24" y="83.34" width="2.38" height="2.38"/>
            <rect class="cls-3" x="95.24" y="73.81" width="2.38" height="2.38"/>
            <rect class="cls-2" x="95.24" y="64.29" width="2.38" height="2.38"/>
            <rect class="cls-3" x="95.24" y="61.91" width="2.38" height="2.38"/>
            <rect class="cls-3" x="95.24" y="57.15" width="2.38" height="2.38"/>
            <rect class="cls-3" x="95.24" y="52.38" width="2.38" height="2.38"/>
            <rect class="cls-3" x="92.85" y="95.24" width="2.39" height="2.38"/>
            <rect class="cls-3" x="90.47" y="90.48" width="2.38" height="2.38"/>
            <rect class="cls-2" x="90.47" y="88.1" width="2.38" height="2.38"/>
            <rect class="cls-3" x="90.47" y="76.19" width="2.38" height="2.38"/>
            <rect class="cls-2" x="90.47" y="71.43" width="2.38" height="2.38"/>
            <rect class="cls-3" x="90.47" y="69.05" width="2.38" height="2.38"/>
            <rect class="cls-3" x="90.48" y="57.15" width="2.38" height="2.38"/>
            <rect class="cls-3" x="90.48" y="54.76" width="2.38" height="2.39"/>
            <rect class="cls-3" x="88.09" y="97.62" width="2.38" height="2.38"/>
            <rect class="cls-3" x="88.09" y="90.48" width="2.38" height="2.38"/>
            <rect class="cls-3" x="88.09" y="88.1" width="2.38" height="2.38"/>
            <rect class="cls-3" x="88.09" y="80.95" width="2.38" height="2.39"/>
            <rect class="cls-3" x="88.09" y="71.43" width="2.38" height="2.38"/>
            <rect class="cls-2" x="88.09" y="69.05" width="2.38" height="2.38"/>
            <rect class="cls-3" x="88.09" y="61.91" width="2.38" height="2.38"/>
            <rect class="cls-3" x="88.1" y="57.15" width="2.38" height="2.38"/>
            <rect class="cls-3" x="88.1" y="50" width="2.38" height="2.38"/>
            <rect class="cls-3" x="85.71" y="95.24" width="2.38" height="2.38"/>
            <rect class="cls-3" x="85.71" y="92.86" width="2.38" height="2.39"/>
            <rect class="cls-3" x="85.71" y="73.81" width="2.38" height="2.38"/>
            <rect class="cls-3" x="83.33" y="95.24" width="2.38" height="2.38"/>
            <rect class="cls-3" x="83.33" y="92.86" width="2.38" height="2.39"/>
            <rect class="cls-3" x="83.33" y="83.34" width="2.38" height="2.38"/>
            <rect class="cls-3" x="83.33" y="76.19" width="2.38" height="2.38"/>
            <rect class="cls-3" x="83.33" y="71.43" width="2.38" height="2.38"/>
            <rect class="cls-3" x="83.33" y="61.91" width="2.38" height="2.38"/>
            <rect class="cls-3" x="83.34" y="59.53" width="2.38" height="2.38"/>
            <rect class="cls-3" x="83.34" y="54.76" width="2.38" height="2.39"/>
            <rect class="cls-3" x="80.95" y="97.62" width="2.39" height="2.38"/>
            <rect class="cls-3" x="80.95" y="85.72" width="2.38" height="2.38"/>
            <rect class="cls-3" x="80.95" y="78.57" width="2.39" height="2.38"/>
            <rect class="cls-3" x="80.95" y="71.43" width="2.38" height="2.38"/>
            <rect class="cls-3" x="80.95" y="66.67" width="2.38" height="2.38"/>
            <rect class="cls-3" x="80.95" y="59.53" width="2.39" height="2.38"/>
            <rect class="cls-2" x="78.57" y="90.48" width="2.38" height="2.38"/>
            <rect class="cls-3" x="78.57" y="80.95" width="2.38" height="2.38"/>
            <rect class="cls-3" x="78.57" y="50" width="2.38" height="2.38"/>
            <rect class="cls-3" x="76.19" y="83.33" width="2.38" height="2.38"/>
            <rect class="cls-3" x="76.19" y="80.95" width="2.38" height="2.38"/>
            <rect class="cls-2" x="76.19" y="78.57" width="2.38" height="2.38"/>
            <rect class="cls-3" x="76.19" y="69.05" width="2.38" height="2.38"/>
            <rect class="cls-3" x="76.19" y="66.66" width="2.38" height="2.39"/>
            <rect class="cls-3" x="76.19" y="59.52" width="2.38" height="2.38"/>
            <rect class="cls-3" x="76.19" y="52.38" width="2.38" height="2.38"/>
            <rect class="cls-3" x="76.19" y="50" width="2.38" height="2.38"/>
            <rect class="cls-3" x="73.81" y="97.62" width="2.38" height="2.38"/>
            <rect class="cls-3" x="73.81" y="95.24" width="2.38" height="2.38"/>
            <rect class="cls-2" x="73.81" y="80.95" width="2.38" height="2.39"/>
            <rect class="cls-3" x="73.81" y="73.81" width="2.38" height="2.38"/>
            <rect class="cls-3" x="73.81" y="69.05" width="2.38" height="2.38"/>
            <rect class="cls-3" x="73.81" y="66.66" width="2.38" height="2.39"/>
            <rect class="cls-3" x="71.43" y="95.24" width="2.38" height="2.38"/>
            <rect class="cls-3" x="71.43" y="90.47" width="2.38" height="2.38"/>
            <rect class="cls-3" x="71.43" y="88.09" width="2.38" height="2.38"/>
            <rect class="cls-3" x="71.43" y="57.14" width="2.38" height="2.38"/>
            <rect class="cls-3" x="71.43" y="54.76" width="2.38" height="2.38"/>
            <rect class="cls-2" x="69.05" y="90.47" width="2.38" height="2.38"/>
            <rect class="cls-3" x="69.05" y="78.57" width="2.38" height="2.38"/>
            <rect class="cls-3" x="69.05" y="73.81" width="2.38" height="2.38"/>
            <rect class="cls-3" x="69.05" y="64.28" width="2.38" height="2.38"/>
            <rect class="cls-3" x="66.66" y="95.24" width="2.39" height="2.38"/>
            <rect class="cls-3" x="66.66" y="85.71" width="2.38" height="2.38"/>
            <rect class="cls-3" x="66.66" y="73.81" width="2.39" height="2.38"/>
            <rect class="cls-3" x="66.66" y="71.43" width="2.38" height="2.38"/>
            <rect class="cls-3" x="66.67" y="50" width="2.38" height="2.38"/>
            <rect class="cls-3" x="64.28" y="80.95" width="2.38" height="2.38"/>
            <rect class="cls-3" x="64.28" y="78.57" width="2.38" height="2.38"/>
            <rect class="cls-3" x="64.28" y="69.05" width="2.38" height="2.38"/>
            <rect class="cls-3" x="64.29" y="59.52" width="2.38" height="2.38"/>
            <rect class="cls-3" x="64.29" y="52.38" width="2.38" height="2.38"/>
            <rect class="cls-3" x="61.9" y="97.62" width="2.38" height="2.38"/>
            <rect class="cls-3" x="61.9" y="92.85" width="2.38" height="2.38"/>
            <rect class="cls-2" x="61.9" y="80.95" width="2.38" height="2.38"/>
            <rect class="cls-3" x="61.9" y="78.57" width="2.38" height="2.38"/>
            <rect class="cls-3" x="61.9" y="73.81" width="2.38" height="2.38"/>
            <rect class="cls-3" x="61.9" y="61.9" width="2.38" height="2.38"/>
            <rect class="cls-3" x="61.91" y="59.52" width="2.38" height="2.38"/>
            <rect class="cls-3" x="59.52" y="97.62" width="2.38" height="2.38"/>
            <rect class="cls-3" x="59.52" y="88.09" width="2.38" height="2.38"/>
            <rect class="cls-3" x="59.52" y="85.71" width="2.38" height="2.38"/>
            <rect class="cls-3" x="59.53" y="50" width="2.38" height="2.38"/>
            <rect class="cls-3" x="57.14" y="88.09" width="2.38" height="2.38"/>
            <rect class="cls-3" x="57.14" y="85.71" width="2.38" height="2.38"/>
            <rect class="cls-3" x="57.14" y="76.19" width="2.38" height="2.38"/>
            <rect class="cls-3" x="57.14" y="66.66" width="2.38" height="2.38"/>
            <rect class="cls-3" x="57.14" y="64.28" width="2.38" height="2.38"/>
            <rect class="cls-3" x="57.15" y="57.14" width="2.38" height="2.38"/>
            <rect class="cls-3" x="57.15" y="54.76" width="2.38" height="2.38"/>
            <rect class="cls-3" x="54.76" y="95.24" width="2.38" height="2.38"/>
            <rect class="cls-3" x="54.76" y="92.85" width="2.38" height="2.38"/>
            <rect class="cls-3" x="54.76" y="80.95" width="2.38" height="2.38"/>
            <rect class="cls-3" x="54.76" y="66.66" width="2.39" height="2.38"/>
            <rect class="cls-3" x="52.38" y="95.24" width="2.38" height="2.38"/>
            <rect class="cls-3" x="52.38" y="92.85" width="2.38" height="2.38"/>
            <rect class="cls-3" x="52.38" y="85.71" width="2.38" height="2.38"/>
            <rect class="cls-3" x="52.38" y="59.52" width="2.38" height="2.38"/>
            <rect class="cls-3" x="52.38" y="52.38" width="2.38" height="2.38"/>
            <rect class="cls-3" x="50" y="90.47" width="2.38" height="2.38"/>
            <rect class="cls-3" x="50" y="76.19" width="2.38" height="2.38"/>
            <rect class="cls-3" x="50" y="71.43" width="2.38" height="2.38"/>
            <rect class="cls-3" x="50" y="64.28" width="2.38" height="2.38"/>
            <rect class="cls-3" x="50" y="54.76" width="2.38" height="2.38"/>
          </g>
        </g>
      </g>
    </pattern>
  </defs>
  <g id="Layer_5" data-name="Layer 5">
    <rect class="cls-5" width="150" height="150"/>
  </g>
</svg>