<?xml version="1.0" encoding="UTF-8"?>
<svg id="Layer_2" data-name="Layer 2" xmlns="http://www.w3.org/2000/svg" viewBox="0 0 382.75 128.12">
  <defs>
    <style>
      .cls-1 {
        fill: #05d690;
      }

      .cls-2 {
        fill: red;
      }

      .cls-3 {
        fill: #f2f2f2;
      }
    </style>
  </defs>
  <g id="Layer_5" data-name="Layer 5">
    <path class="cls-3" d="M64,.12v48.05c-.41-.03-.83-.05-1.25-.05-4.42,0-8.42,1.79-11.31,4.69-2.9,2.9-4.69,6.9-4.69,11.31H0V.12h64Z"/>
    <path class="cls-3" d="M64,80.07v48.05H0v-64h46.75c0,4.42,1.79,8.42,4.69,11.31,2.89,2.9,6.89,4.69,11.31,4.69.42,0,.84-.02,1.25-.05Z"/>
    <path class="cls-3" d="M128,64v.12h-49.25c0-8.41-6.49-15.31-14.75-15.95V.12c17.67,0,33.67,7.17,45.26,18.75,9.68,9.68,16.27,22.44,18.17,36.69.37,2.76.56,5.58.57,8.44Z"/>
    <path class="cls-3" d="M128,64.12c0,4.09-.38,8.08-1.12,11.96-2.43,12.88-8.72,24.39-17.62,33.3-11.59,11.58-27.59,18.74-45.26,18.74v-48.05c3.92-.3,7.45-2.02,10.07-4.64,2.89-2.89,4.68-6.89,4.68-11.31h49.25Z"/>
    <path class="cls-3" d="M190.88,79.25v48.75h-64v-64h48.02c.19,4.12,1.94,7.84,4.67,10.56,2.89,2.9,6.89,4.69,11.31,4.69Z"/>
    <path class="cls-3" d="M254.88,64v64h-64v-48.75c4.41,0,8.41-1.79,11.31-4.69,2.73-2.72,4.48-6.44,4.67-10.56h48.02Z"/>
    <path class="cls-3" d="M190.88,0v47.25c-8.84,0-16,7.16-16,16,0,.25.01.5.02.75h-48.02c0-2.86.19-5.67.55-8.43h0c1.88-14.31,8.48-27.12,18.19-36.83C157.21,7.16,173.21,0,190.88,0Z"/>
    <path class="cls-3" d="M254.88,64h-48.02c.01-.25.02-.5.02-.75,0-4.42-1.79-8.42-4.69-11.32-2.9-2.89-6.9-4.68-11.31-4.68V0c17.67,0,33.67,7.16,45.25,18.74,10.96,10.97,17.97,25.89,18.69,42.44.04.93.06,1.87.06,2.82Z"/>
    <path class="cls-3" d="M382.75,64.12c0,17.67-7.16,33.67-18.74,45.26-11.58,11.58-27.58,18.74-45.26,18.74v-48.01c.08.01.17.01.25.01,4.42,0,8.42-1.79,11.31-4.69,2.9-2.89,4.69-6.89,4.69-11.31h47.75Z"/>
    <path class="cls-3" d="M382.75,64.12h-47.75c0-4.41-1.79-8.41-4.69-11.31-2.89-2.9-6.89-4.69-11.31-4.69-.08,0-.17,0-.25.01V.12c35.35,0,64,28.66,64,64Z"/>
    <path class="cls-3" d="M318.75,80.11v48.01c-17.67,0-33.67-7.16-45.25-18.74-11.59-11.59-18.75-27.59-18.75-45.26h48.25c0,8.76,7.03,15.86,15.75,15.99Z"/>
    <path class="cls-3" d="M318.75.12v48.01c-4.31.06-8.22,1.84-11.06,4.68s-4.69,6.9-4.69,11.31h-48.25c0-17.67,7.16-33.67,18.75-45.25C285.08,7.29,301.08.12,318.75.12Z"/>
    <rect class="cls-2" x="186" y="58.12" width="10" height="10" rx="5" ry="5" transform="translate(127.88 254.13) rotate(-90)"/>
    <rect class="cls-1" x="57.96" y="59.2" width="10" height="10" rx="5" ry="5" transform="translate(-1.24 127.15) rotate(-90)"/>
    <rect class="cls-2" x="314" y="59.12" width="10" height="10" rx="5" ry="5" transform="translate(383.13 -254.88) rotate(90)"/>
  </g>
</svg>