<?xml version="1.0" encoding="UTF-8"?>
<svg id="Layer_2" data-name="Layer 2" xmlns="http://www.w3.org/2000/svg" viewBox="0 0 683.92 288.3">
  <defs>
    <style>
      .cls-1 {
        fill: #05d690;
      }

      .cls-2 {
        fill: red;
      }

      .cls-3 {
        fill: #1a1a1a;
      }
    </style>
  </defs>
  <g id="Layer_5" data-name="Layer 5">
    <polygon class="cls-3" points=".95 64 .95 0 64.95 0 .95 64"/>
    <path class="cls-3" d="M64.95,64v48c-4.41,0-8.41,1.79-11.31,4.69s-4.69,6.9-4.69,11.31H.95V64h64Z"/>
    <path class="cls-3" d="M64.95,144v48H.95v-64h48c0,8.84,7.17,16,16,16Z"/>
    <path class="cls-3" d="M128.95,128h-48c0-4.41-1.79-8.41-4.69-11.31-2.89-2.9-6.89-4.69-11.31-4.69v-48c17.67,0,33.67,7.17,45.26,18.75,10.71,10.71,17.64,25.19,18.62,41.29.08,1.31.12,2.63.12,3.96Z"/>
    <path class="cls-3" d="M128.95,128c0,1.33-.04,2.65-.12,3.96-.98,16.1-7.91,30.58-18.62,41.3-11.59,11.58-27.59,18.74-45.26,18.74v-48c4.42,0,8.42-1.79,11.31-4.69,2.9-2.89,4.69-6.89,4.69-11.31h48Z"/>
    <rect class="cls-3" x="398.25" width="64" height="64"/>
    <rect class="cls-3" x="398.25" y="64" width="64" height="64"/>
    <rect class="cls-3" x="398.25" y="128" width="64" height="64"/>
    <rect class="cls-3" x="462.25" y="64" width="64" height="64"/>
    <path class="cls-3" d="M256.7,128v17.81c-.81-1.93-1.98-3.66-3.44-5.12-2.89-2.9-6.89-4.69-11.31-4.69s-8.41,1.79-11.31,4.69c-2.9,2.9-4.69,6.9-4.69,11.31,0,8.84,7.17,16,16,16,4.42,0,8.42-1.79,11.31-4.69,1.46-1.45,2.63-3.19,3.44-5.11v33.8h-64v-64h64Z"/>
    <path class="cls-3" d="M230.64,92.69c-2.9,2.9-4.69,6.9-4.69,11.31,0,8.84,7.17,16,16,16,4.42,0,8.42-1.79,11.31-4.69,1.46-1.45,2.63-3.19,3.44-5.11v17.8h-64V64h64v33.81c-.81-1.93-1.98-3.66-3.44-5.12-2.89-2.9-6.89-4.69-11.31-4.69s-8.41,1.79-11.31,4.69Z"/>
    <path class="cls-3" d="M128.7,128h0c35.32,0,64,28.68,64,64h-64v-64h0Z" transform="translate(321.4 320) rotate(180)"/>
    <path class="cls-3" d="M128.7,64h64c0,35.32-28.68,64-64,64h0v-64h0Z" transform="translate(321.4 192) rotate(180)"/>
    <path class="cls-3" d="M355.7,140.69c-2.9,2.9-4.69,6.9-4.69,11.31,0,8.84,7.16,16,16,16,4.41,0,8.41-1.79,11.31-4.69,1.79-1.78,3.16-3.99,3.94-6.46v35.15h-64v-64h64v19.16c-.78-2.47-2.15-4.68-3.94-6.47-2.9-2.9-6.9-4.69-11.31-4.69s-8.42,1.79-11.31,4.69Z"/>
    <path class="cls-3" d="M355.7,92.69c-2.9,2.9-4.69,6.9-4.69,11.31,0,8.84,7.16,16,16,16,4.41,0,8.41-1.79,11.31-4.69,1.79-1.78,3.16-3.99,3.94-6.46v19.15h-64V64h64v35.16c-.78-2.47-2.15-4.68-3.94-6.47-2.9-2.9-6.9-4.69-11.31-4.69s-8.42,1.79-11.31,4.69Z"/>
    <path class="cls-3" d="M318.26,128v64c-17.68,0-33.68-7.16-45.26-18.74-7-7.01-12.38-15.62-15.55-25.25-.02-.06-.03-.12-.05-.17-.11-.41-.23-.81-.38-1.2-.01-.05-.02-.09-.04-.13-.1-.32-.19-.64-.28-.96-1.59-5.58-2.44-11.46-2.44-17.55h64Z"/>
    <path class="cls-3" d="M318.26,64v64h-64c0-6.09.85-11.97,2.44-17.55.09-.32.18-.63.28-.95.01-.01.01-.03.02-.05.16-.45.3-.9.43-1.37,0-.03.01-.05.02-.08,3.16-9.63,8.55-18.25,15.55-25.25,11.58-11.58,27.58-18.75,45.26-18.75Z"/>
    <path class="cls-3" d="M590.25,128h0v64h-64c0-35.32,28.68-64,64-64Z" transform="translate(1116.51 320) rotate(180)"/>
    <path class="cls-3" d="M591.25,64h64c0,35.32-28.68,64-64,64h0v-64h0Z" transform="translate(1246.51 192) rotate(180)"/>
    <g>
      <path class="cls-3" d="M601.27,176.38c1.46,0,2.79.35,3.99,1.06s2.15,1.66,2.86,2.86c.71,1.2,1.07,2.52,1.07,3.97,0,1.09-.21,2.11-.62,3.07s-.98,1.8-1.7,2.53c-.73.73-1.56,1.29-2.52,1.7-.96.41-1.98.62-3.08.62-.94,0-1.77-.21-2.5-.64-.73-.42-1.33-.98-1.82-1.66v1.9h-3.66v-22.5h3.66v9.38c.49-.68,1.1-1.23,1.82-1.66.72-.42,1.56-.64,2.5-.64ZM601.23,188.65c.78,0,1.49-.2,2.12-.59.63-.39,1.14-.92,1.52-1.58.38-.66.57-1.4.57-2.2s-.19-1.53-.57-2.2-.89-1.19-1.53-1.58c-.64-.39-1.35-.58-2.12-.58s-1.44.2-2.04.59c-.6.4-1.07.93-1.41,1.59-.34.67-.51,1.39-.51,2.18s.17,1.55.51,2.21c.34.67.81,1.19,1.41,1.58.6.39,1.28.58,2.04.58Z"/>
      <path class="cls-3" d="M617.44,192.19c-1.38,0-2.64-.35-3.77-1.06-1.14-.71-2.04-1.67-2.71-2.87-.68-1.2-1.01-2.52-1.01-3.98,0-1.09.2-2.11.58-3.07.39-.95.93-1.79,1.61-2.52.68-.73,1.48-1.29,2.39-1.7.91-.41,1.88-.61,2.91-.61,1.17,0,2.24.25,3.22.74.97.5,1.8,1.17,2.48,2.03.68.86,1.17,1.84,1.48,2.94.31,1.1.38,2.25.21,3.45h-10.96c.14.56.37,1.06.69,1.51.32.45.73.8,1.21,1.06.49.27,1.04.4,1.67.41.64.01,1.22-.14,1.75-.46s.96-.74,1.31-1.28l3.73.87c-.61,1.33-1.52,2.42-2.73,3.26s-2.56,1.27-4.06,1.27ZM613.75,182.8h7.38c-.11-.6-.34-1.14-.7-1.63s-.79-.87-1.31-1.16c-.52-.29-1.08-.44-1.68-.44s-1.15.14-1.67.43c-.51.28-.94.67-1.3,1.15-.35.49-.6,1.03-.73,1.64Z"/>
      <path class="cls-3" d="M633.18,192.19c-1.38,0-2.64-.35-3.77-1.06-1.14-.71-2.04-1.67-2.71-2.87-.68-1.2-1.01-2.52-1.01-3.98,0-1.09.2-2.11.58-3.07.39-.95.93-1.79,1.61-2.52.68-.73,1.48-1.29,2.39-1.7.91-.41,1.88-.61,2.91-.61,1.17,0,2.24.25,3.22.74.97.5,1.8,1.17,2.48,2.03.68.86,1.17,1.84,1.48,2.94.31,1.1.38,2.25.21,3.45h-10.96c.14.56.37,1.06.69,1.51.32.45.73.8,1.21,1.06.49.27,1.04.4,1.67.41.64.01,1.22-.14,1.75-.46s.96-.74,1.31-1.28l3.73.87c-.61,1.33-1.52,2.42-2.73,3.26s-2.56,1.27-4.06,1.27ZM629.49,182.8h7.38c-.11-.6-.34-1.14-.7-1.63s-.79-.87-1.31-1.16c-.52-.29-1.08-.44-1.68-.44s-1.15.14-1.67.43c-.51.28-.94.67-1.3,1.15-.35.49-.6,1.03-.73,1.64Z"/>
      <path class="cls-3" d="M650.32,180.46h-2.91v11.34h-3.66v-11.34h-2.22v-3.66h2.22v-4.71h3.66v4.71h2.91v3.66Z"/>
      <path class="cls-3" d="M656.47,192.07c-.78-.05-1.53-.21-2.26-.47-.73-.26-1.37-.63-1.93-1.09s-.99-1.01-1.29-1.65l3.09-1.32c.12.2.31.41.58.64s.59.41.97.56.79.23,1.24.23c.38,0,.74-.05,1.09-.16.35-.1.62-.27.84-.49.21-.22.32-.5.32-.85,0-.37-.13-.66-.38-.86s-.58-.36-.96-.47c-.39-.1-.76-.2-1.12-.29-.95-.19-1.83-.48-2.65-.88s-1.47-.92-1.96-1.55c-.5-.63-.74-1.4-.74-2.3,0-.99.26-1.85.79-2.56.52-.72,1.21-1.28,2.06-1.67.84-.39,1.76-.58,2.74-.58,1.19,0,2.28.25,3.28.74s1.78,1.19,2.36,2.09l-2.9,1.71c-.14-.24-.34-.46-.58-.67-.25-.21-.54-.38-.85-.51-.32-.13-.66-.21-1.01-.23-.45-.02-.86.02-1.23.12s-.67.27-.89.51c-.22.24-.34.56-.34.96s.15.66.45.85c.3.19.66.33,1.09.43.42.1.83.21,1.22.33.88.29,1.71.65,2.48,1.06.77.42,1.4.94,1.87,1.55.47.61.69,1.34.67,2.19,0,.97-.29,1.82-.87,2.54s-1.33,1.28-2.24,1.66c-.92.38-1.89.53-2.93.45Z"/>
      <path class="cls-3" d="M665.49,192.19c-.52,0-.96-.18-1.33-.55-.37-.36-.55-.81-.55-1.34s.18-.95.55-1.32c.36-.37.81-.56,1.33-.56s.96.19,1.33.56c.37.37.55.81.55,1.32s-.19.98-.55,1.34c-.37.37-.82.55-1.33.55Z"/>
      <path class="cls-3" d="M674.47,173.65v3.15h4.1v3.66h-4.1v11.34h-3.66v-11.34h-1.63v-3.66h1.63v-3.15c0-.86.21-1.65.64-2.36.42-.71,1-1.28,1.72-1.71.72-.42,1.51-.64,2.38-.64.63,0,1.25.13,1.88.39.62.26,1.17.66,1.65,1.2l-2.64,2.58c-.09-.17-.22-.3-.38-.38s-.33-.13-.5-.13c-.29,0-.54.1-.76.31-.22.21-.32.45-.32.74Z"/>
      <path class="cls-3" d="M682.05,174.87c-.54,0-1-.18-1.37-.53s-.55-.8-.55-1.34.18-.98.55-1.33.82-.54,1.35-.54.98.18,1.34.54c.37.36.55.81.55,1.33s-.18.99-.54,1.34c-.36.35-.81.53-1.33.53ZM680.19,176.8h3.66v15h-3.66v-15Z"/>
    </g>
    <g>
      <path class="cls-3" d="M0,280.8v-21h6.96c1.45,0,2.81.27,4.07.82,1.27.55,2.38,1.3,3.35,2.27.96.97,1.72,2.08,2.26,3.35s.82,2.62.82,4.07-.27,2.81-.82,4.07c-.54,1.27-1.3,2.38-2.26,3.35s-2.08,1.72-3.35,2.27-2.62.82-4.07.82H0ZM3.66,277.14h3.3c.93,0,1.81-.18,2.63-.53.82-.35,1.55-.85,2.18-1.47.63-.62,1.12-1.35,1.48-2.17.36-.83.54-1.71.54-2.66s-.18-1.83-.54-2.65-.85-1.55-1.48-2.18c-.63-.63-1.36-1.12-2.18-1.48-.82-.35-1.7-.53-2.64-.53h-3.3v13.68Z"/>
      <path class="cls-3" d="M25.55,281.19c-1.38,0-2.64-.35-3.77-1.06-1.14-.71-2.04-1.67-2.71-2.87-.68-1.2-1.01-2.52-1.01-3.98,0-1.09.2-2.11.58-3.07.39-.95.93-1.79,1.61-2.52.68-.73,1.48-1.29,2.39-1.7.91-.41,1.88-.61,2.91-.61,1.17,0,2.24.25,3.22.74.97.5,1.8,1.17,2.48,2.03.68.86,1.17,1.84,1.48,2.94.31,1.1.38,2.25.21,3.45h-10.96c.14.56.37,1.06.69,1.51.32.45.73.8,1.21,1.06.49.27,1.04.4,1.67.41.64.01,1.22-.14,1.75-.46s.96-.74,1.31-1.28l3.73.87c-.61,1.33-1.52,2.42-2.73,3.26s-2.56,1.27-4.06,1.27ZM21.86,271.8h7.38c-.11-.6-.34-1.14-.7-1.63s-.79-.87-1.31-1.16c-.52-.29-1.08-.44-1.68-.44s-1.15.14-1.67.43c-.51.28-.94.67-1.3,1.15-.35.49-.6,1.03-.73,1.64Z"/>
      <path class="cls-3" d="M34.41,280.8v-21h12.41v3.66h-8.75v4.26h7.31v3.66h-7.31v9.42h-3.66Z"/>
      <path class="cls-3" d="M49.25,263.87c-.54,0-1-.18-1.37-.53s-.55-.8-.55-1.34.18-.98.55-1.33.82-.54,1.35-.54.98.18,1.34.54c.37.36.55.81.55,1.33s-.18.99-.54,1.34c-.36.35-.81.53-1.33.53ZM47.39,265.8h3.66v15h-3.66v-15Z"/>
      <path class="cls-3" d="M67.52,271.32v9.48h-3.66v-8.52c0-.59-.15-1.13-.44-1.61s-.68-.87-1.16-1.16c-.49-.28-1.02-.43-1.61-.43s-1.13.14-1.61.43c-.49.29-.87.67-1.16,1.16-.28.48-.43,1.02-.43,1.61v8.52h-3.66l-.02-15h3.66l.02,1.33c.51-.54,1.12-.97,1.83-1.28.71-.32,1.47-.47,2.29-.47,1.09,0,2.08.27,2.98.8.9.54,1.62,1.25,2.15,2.15.54.9.8,1.89.8,2.99Z"/>
      <path class="cls-3" d="M76.07,281.19c-1.38,0-2.64-.35-3.77-1.06-1.14-.71-2.04-1.67-2.71-2.87-.68-1.2-1.01-2.52-1.01-3.98,0-1.09.2-2.11.58-3.07.39-.95.93-1.79,1.61-2.52.68-.73,1.48-1.29,2.39-1.7.91-.41,1.88-.61,2.91-.61,1.17,0,2.24.25,3.22.74.97.5,1.8,1.17,2.48,2.03.68.86,1.17,1.84,1.48,2.94.31,1.1.38,2.25.21,3.45h-10.96c.14.56.37,1.06.69,1.51.32.45.73.8,1.21,1.06.49.27,1.04.4,1.67.41.64.01,1.22-.14,1.75-.46s.96-.74,1.31-1.28l3.73.87c-.61,1.33-1.52,2.42-2.73,3.26s-2.56,1.27-4.06,1.27ZM72.38,271.8h7.38c-.11-.6-.34-1.14-.7-1.63s-.79-.87-1.31-1.16c-.52-.29-1.08-.44-1.68-.44s-1.15.14-1.67.43c-.51.28-.94.67-1.3,1.15-.35.49-.6,1.03-.73,1.64Z"/>
      <path class="cls-3" d="M102.24,265.8h3.89l-8.21,22.5h-3.89l2.72-7.5-5.4-15h4l3.23,9.99,3.66-9.99Z"/>
      <path class="cls-3" d="M113.49,281.19c-1.38,0-2.64-.35-3.77-1.06-1.14-.71-2.04-1.66-2.71-2.86-.68-1.19-1.01-2.52-1.01-3.97,0-1.1.2-2.13.58-3.08.39-.95.93-1.79,1.61-2.52.68-.73,1.48-1.29,2.39-1.7.91-.41,1.88-.61,2.91-.61,1.38,0,2.64.35,3.77,1.06s2.04,1.67,2.72,2.86c.67,1.2,1.01,2.53,1.01,3.99,0,1.09-.19,2.11-.58,3.06s-.93,1.79-1.61,2.51c-.69.73-1.48,1.29-2.39,1.7-.91.41-1.88.62-2.92.62ZM113.49,277.53c.73,0,1.39-.19,1.97-.58.58-.39,1.04-.9,1.37-1.54s.5-1.34.5-2.1-.17-1.49-.52-2.14c-.35-.65-.81-1.16-1.4-1.54-.58-.38-1.23-.58-1.93-.58s-1.37.19-1.95.58c-.58.39-1.04.91-1.38,1.56-.34.65-.51,1.36-.51,2.12s.17,1.51.52,2.15c.35.64.82,1.15,1.4,1.52s1.22.56,1.91.56Z"/>
      <path class="cls-3" d="M121.65,275.25v-9.45h3.66v8.49c0,.59.15,1.13.44,1.61.29.49.68.87,1.16,1.15.48.29,1.02.43,1.6.43s1.14-.14,1.62-.43c.48-.28.87-.67,1.16-1.15.29-.48.44-1.02.44-1.61v-8.49h3.66l.02,15h-3.66v-1.37c-.53.54-1.15.97-1.86,1.28s-1.47.47-2.28.47c-1.09,0-2.08-.27-2.99-.8-.9-.53-1.62-1.25-2.15-2.15-.54-.89-.8-1.89-.8-2.99Z"/>
      <path class="cls-3" d="M137.65,280.8l-.02-15h3.66l.02,1.33c.51-.54,1.12-.97,1.83-1.28.71-.32,1.47-.47,2.29-.47.55,0,1.1.08,1.65.24l-1.44,3.69c-.38-.15-.76-.22-1.14-.22-.59,0-1.13.14-1.61.43-.49.29-.87.67-1.16,1.16-.28.48-.43,1.02-.43,1.61v8.52h-3.66Z"/>
      <path class="cls-3" d="M159.13,262.65v3.15h4.1v3.66h-4.1v11.34h-3.66v-11.34h-1.63v-3.66h1.63v-3.15c0-.86.21-1.65.64-2.36.42-.71,1-1.28,1.72-1.71.72-.42,1.51-.64,2.38-.64.63,0,1.25.13,1.88.39.62.26,1.17.66,1.65,1.2l-2.64,2.58c-.09-.17-.22-.3-.38-.38s-.33-.13-.5-.13c-.29,0-.54.1-.76.31-.22.21-.32.45-.32.74Z"/>
      <path class="cls-3" d="M166.71,263.87c-.54,0-1-.18-1.37-.53s-.55-.8-.55-1.34.18-.98.55-1.33.82-.54,1.35-.54.98.18,1.34.54c.37.36.55.81.55,1.33s-.18.99-.54,1.34c-.36.35-.81.53-1.33.53ZM164.85,265.8h3.66v15h-3.66v-15Z"/>
      <path class="cls-3" d="M184.98,271.32v9.48h-3.66v-8.52c0-.59-.15-1.13-.44-1.61s-.68-.87-1.16-1.16c-.49-.28-1.02-.43-1.61-.43s-1.13.14-1.61.43c-.49.29-.87.67-1.16,1.16-.28.48-.43,1.02-.43,1.61v8.52h-3.66l-.02-15h3.66l.02,1.33c.51-.54,1.12-.97,1.83-1.28.71-.32,1.47-.47,2.29-.47,1.09,0,2.08.27,2.98.8.9.54,1.62,1.25,2.15,2.15.54.9.8,1.89.8,2.99Z"/>
      <path class="cls-3" d="M198.24,265.8h3.66v15h-3.66l-.17-1.86c-.41.67-.95,1.21-1.63,1.63-.67.41-1.47.62-2.39.62-1.11,0-2.15-.21-3.12-.63-.97-.42-1.82-1-2.56-1.74-.73-.74-1.31-1.59-1.73-2.56-.42-.97-.62-2.01-.62-3.12s.2-2.07.59-3.02c.39-.94.95-1.76,1.66-2.47s1.53-1.27,2.46-1.67c.93-.4,1.93-.6,3-.6.99,0,1.88.22,2.66.66s1.45,1,2,1.68l-.17-1.92ZM193.96,277.67c.78,0,1.47-.2,2.07-.59.6-.39,1.07-.92,1.41-1.58.34-.66.51-1.4.51-2.2s-.17-1.55-.51-2.21-.81-1.19-1.42-1.58-1.29-.58-2.06-.58-1.47.2-2.11.59c-.64.4-1.14.92-1.52,1.58s-.56,1.4-.56,2.21.19,1.54.57,2.21c.38.66.89,1.19,1.52,1.57.63.39,1.33.59,2.09.59Z"/>
      <path class="cls-3" d="M217.89,271.32v9.48h-3.66v-8.52c0-.59-.15-1.13-.44-1.61s-.68-.87-1.16-1.16c-.49-.28-1.02-.43-1.61-.43s-1.13.14-1.61.43c-.49.29-.87.67-1.16,1.16-.28.48-.43,1.02-.43,1.61v8.52h-3.66l-.02-15h3.66l.02,1.33c.51-.54,1.12-.97,1.83-1.28.71-.32,1.47-.47,2.29-.47,1.09,0,2.08.27,2.98.8.9.54,1.62,1.25,2.15,2.15.54.9.8,1.89.8,2.99Z"/>
      <path class="cls-3" d="M229.14,276.29l3.3,1.79c-.69.94-1.56,1.69-2.59,2.27-1.04.57-2.18.85-3.41.85-1.38,0-2.64-.35-3.77-1.06-1.14-.71-2.04-1.66-2.71-2.86-.68-1.19-1.01-2.52-1.01-3.97,0-1.1.2-2.13.58-3.08.39-.95.93-1.79,1.61-2.52.68-.73,1.48-1.29,2.39-1.7.91-.41,1.88-.61,2.91-.61,1.23,0,2.36.29,3.41.85,1.04.57,1.9,1.33,2.59,2.29l-3.3,1.77c-.35-.4-.76-.71-1.24-.93-.48-.22-.96-.33-1.46-.33-.72,0-1.37.2-1.95.59-.58.4-1.04.92-1.38,1.56s-.51,1.35-.51,2.11.17,1.45.51,2.09.8,1.16,1.38,1.55c.58.39,1.23.58,1.95.58.52,0,1.02-.11,1.48-.34.47-.23.88-.53,1.22-.91Z"/>
      <path class="cls-3" d="M235.68,263.87c-.54,0-1-.18-1.37-.53s-.55-.8-.55-1.34.18-.98.55-1.33.82-.54,1.35-.54.98.18,1.34.54c.37.36.55.81.55,1.33s-.18.99-.54,1.34c-.36.35-.81.53-1.33.53ZM233.82,265.8h3.66v15h-3.66v-15Z"/>
      <path class="cls-3" d="M251.29,265.8h3.66v15h-3.66l-.17-1.86c-.41.67-.95,1.21-1.63,1.63-.67.41-1.47.62-2.39.62-1.11,0-2.15-.21-3.12-.63-.97-.42-1.82-1-2.56-1.74-.73-.74-1.31-1.59-1.73-2.56-.42-.97-.62-2.01-.62-3.12s.2-2.07.59-3.02c.39-.94.95-1.76,1.66-2.47s1.53-1.27,2.46-1.67c.93-.4,1.93-.6,3-.6.99,0,1.88.22,2.66.66s1.45,1,2,1.68l-.17-1.92ZM247.02,277.67c.78,0,1.47-.2,2.07-.59.6-.39,1.07-.92,1.41-1.58.34-.66.51-1.4.51-2.2s-.17-1.55-.51-2.21-.81-1.19-1.42-1.58-1.29-.58-2.06-.58-1.47.2-2.11.59c-.64.4-1.14.92-1.52,1.58s-.56,1.4-.56,2.21.19,1.54.57,2.21c.38.66.89,1.19,1.52,1.57.63.39,1.33.59,2.09.59Z"/>
      <path class="cls-3" d="M257.28,280.8v-22.5h3.66v22.5h-3.66Z"/>
      <path class="cls-3" d="M274.48,262.65v3.15h4.1v3.66h-4.1v11.34h-3.66v-11.34h-1.63v-3.66h1.63v-3.15c0-.86.21-1.65.64-2.36.42-.71,1-1.28,1.72-1.71.72-.42,1.51-.64,2.38-.64.63,0,1.25.13,1.88.39.62.26,1.17.66,1.65,1.2l-2.64,2.58c-.09-.17-.22-.3-.38-.38s-.33-.13-.5-.13c-.29,0-.54.1-.76.31-.22.21-.32.45-.32.74Z"/>
      <path class="cls-3" d="M279.96,275.25v-9.45h3.66v8.49c0,.59.15,1.13.44,1.61.29.49.68.87,1.16,1.15.48.29,1.02.43,1.6.43s1.14-.14,1.62-.43c.48-.28.87-.67,1.16-1.15.29-.48.44-1.02.44-1.61v-8.49h3.66l.02,15h-3.66v-1.37c-.53.54-1.15.97-1.86,1.28s-1.47.47-2.28.47c-1.09,0-2.08-.27-2.99-.8-.9-.53-1.62-1.25-2.15-2.15-.54-.89-.8-1.89-.8-2.99Z"/>
      <path class="cls-3" d="M303.99,269.46h-2.91v11.34h-3.66v-11.34h-2.22v-3.66h2.22v-4.71h3.66v4.71h2.91v3.66Z"/>
      <path class="cls-3" d="M305.34,275.25v-9.45h3.66v8.49c0,.59.15,1.13.44,1.61.29.49.68.87,1.16,1.15.48.29,1.02.43,1.6.43s1.14-.14,1.62-.43c.48-.28.87-.67,1.16-1.15.29-.48.44-1.02.44-1.61v-8.49h3.66l.02,15h-3.66v-1.37c-.53.54-1.15.97-1.86,1.28s-1.47.47-2.28.47c-1.09,0-2.08-.27-2.99-.8-.9-.53-1.62-1.25-2.15-2.15-.54-.89-.8-1.89-.8-2.99Z"/>
      <path class="cls-3" d="M321.34,280.8l-.02-15h3.66l.02,1.33c.51-.54,1.12-.97,1.83-1.28.71-.32,1.47-.47,2.29-.47.55,0,1.1.08,1.65.24l-1.44,3.69c-.38-.15-.76-.22-1.14-.22-.59,0-1.13.14-1.61.43-.49.29-.87.67-1.16,1.16-.28.48-.43,1.02-.43,1.61v8.52h-3.66Z"/>
      <path class="cls-3" d="M337.6,281.19c-1.38,0-2.64-.35-3.77-1.06-1.14-.71-2.04-1.67-2.71-2.87-.68-1.2-1.01-2.52-1.01-3.98,0-1.09.2-2.11.58-3.07.39-.95.93-1.79,1.61-2.52.68-.73,1.48-1.29,2.39-1.7.91-.41,1.88-.61,2.91-.61,1.17,0,2.24.25,3.22.74.97.5,1.8,1.17,2.48,2.03.68.86,1.17,1.84,1.48,2.94.31,1.1.38,2.25.21,3.45h-10.96c.14.56.37,1.06.69,1.51.32.45.73.8,1.21,1.06.49.27,1.04.4,1.67.41.64.01,1.22-.14,1.75-.46s.96-.74,1.31-1.28l3.73.87c-.61,1.33-1.52,2.42-2.73,3.26s-2.56,1.27-4.06,1.27ZM333.91,271.8h7.38c-.11-.6-.34-1.14-.7-1.63s-.79-.87-1.31-1.16c-.52-.29-1.08-.44-1.68-.44s-1.15.14-1.67.43c-.51.28-.94.67-1.3,1.15-.35.49-.6,1.03-.73,1.64Z"/>
      <path class="cls-3" d="M348.01,281.19c-.52,0-.96-.18-1.33-.55-.37-.36-.55-.81-.55-1.34s.18-.95.55-1.32c.36-.37.81-.56,1.33-.56s.96.19,1.33.56c.37.37.55.81.55,1.32s-.19.98-.55,1.34c-.37.37-.82.55-1.33.55Z"/>
    </g>
    <rect class="cls-2" x="60.04" y="123" width="10" height="10" rx="5" ry="5" transform="translate(193.04 62.96) rotate(90)"/>
    <rect class="cls-1" x="237" y="147" width="10" height="10" rx="5" ry="5" transform="translate(483.99 304) rotate(-180)"/>
    <rect class="cls-2" x="237" y="99" width="10" height="10" rx="5" ry="5" transform="translate(483.99 208) rotate(-180)"/>
    <rect class="cls-1" x="362" y="99" width="10" height="10" rx="5" ry="5"/>
    <rect class="cls-2" x="362" y="147" width="10" height="10" rx="5" ry="5"/>
  </g>
</svg>