<?xml version="1.0" encoding="UTF-8"?>
<svg id="Layer_2" data-name="Layer 2" xmlns="http://www.w3.org/2000/svg" viewBox="0 0 698.24 196.49">
  <defs>
    <style>
      .cls-1 {
        fill: #05d690;
      }

      .cls-2 {
        fill: red;
      }

      .cls-3 {
        fill: #1a1a1a;
      }
    </style>
  </defs>
  <g id="Layer_5" data-name="Layer 5">
    <polygon class="cls-3" points="0 65.43 0 0 65.43 0 0 65.43"/>
    <path class="cls-3" d="M65.43,65.43v49.07c-4.51,0-8.6,1.83-11.56,4.79-2.96,2.96-4.79,7.06-4.79,11.57H0v-65.43h65.43Z"/>
    <path class="cls-3" d="M65.43,147.22v49.07H0v-65.43h49.08c0,9.03,7.32,16.36,16.35,16.36Z"/>
    <path class="cls-3" d="M130.86,130.86h-49.07c0-4.51-1.83-8.61-4.79-11.57s-7.05-4.79-11.57-4.79v-49.07c18.07,0,34.43,7.32,46.27,19.16,11.84,11.84,19.16,28.2,19.16,46.27Z"/>
    <path class="cls-3" d="M130.86,130.86c0,18.07-7.32,34.43-19.16,46.27-11.84,11.84-28.2,19.16-46.27,19.16v-49.07c4.52,0,8.61-1.83,11.57-4.79s4.79-7.06,4.79-11.57h49.07Z"/>
    <rect class="cls-3" x="406.18" width="65.43" height="65.43"/>
    <rect class="cls-3" x="406.18" y="65.43" width="65.43" height="65.43"/>
    <rect class="cls-3" x="406.18" y="130.86" width="65.43" height="65.43"/>
    <rect class="cls-3" x="471.61" y="65.43" width="65.43" height="65.43"/>
    <path class="cls-3" d="M234.82,143.83c-2.96,2.96-4.79,7.05-4.79,11.57,0,9.03,7.32,16.35,16.36,16.35,4.51,0,8.61-1.83,11.57-4.79,1.48-1.49,2.69-3.25,3.51-5.22v34.55h-65.43v-65.43h65.43v18.19c-.82-1.97-2.03-3.74-3.51-5.22-2.96-2.96-7.06-4.79-11.57-4.79s-8.61,1.83-11.57,4.79Z"/>
    <path class="cls-3" d="M234.82,94.76c-2.96,2.96-4.79,7.05-4.79,11.56,0,9.04,7.32,16.36,16.36,16.36,4.51,0,8.61-1.83,11.57-4.79,1.48-1.48,2.69-3.25,3.51-5.22v18.19h-65.43v-65.43h65.43v34.55c-.82-1.97-2.03-3.73-3.51-5.22-2.96-2.96-7.06-4.79-11.57-4.79s-8.61,1.83-11.57,4.79Z"/>
    <path class="cls-3" d="M130.61,130.86h0c36.11,0,65.43,29.32,65.43,65.43h-65.43v-65.43h0Z" transform="translate(326.65 327.15) rotate(180)"/>
    <path class="cls-3" d="M130.61,65.43h65.43c0,36.11-29.32,65.43-65.43,65.43h0v-65.43h0Z" transform="translate(326.65 196.29) rotate(180)"/>
    <path class="cls-3" d="M362.67,143.83c-2.96,2.96-4.79,7.05-4.79,11.57,0,9.03,7.32,16.35,16.36,16.35,4.52,0,8.6-1.83,11.56-4.79,1.84-1.84,3.24-4.11,4.03-6.64v35.97h-65.43v-65.43h65.43v19.61c-.79-2.53-2.19-4.8-4.03-6.64-2.96-2.96-7.04-4.79-11.56-4.79s-8.61,1.83-11.57,4.79Z"/>
    <path class="cls-3" d="M362.67,94.76c-2.96,2.96-4.79,7.05-4.79,11.56,0,9.04,7.32,16.36,16.36,16.36,4.52,0,8.6-1.83,11.56-4.79,1.84-1.84,3.24-4.11,4.03-6.64v19.61h-65.43v-65.43h65.43v35.97c-.79-2.53-2.19-4.8-4.03-6.64-2.96-2.96-7.04-4.79-11.56-4.79s-8.61,1.83-11.57,4.79Z"/>
    <path class="cls-3" d="M258.97,130.86h0c36.11,0,65.43,29.32,65.43,65.43h-65.43v-65.43h0Z" transform="translate(583.36 327.15) rotate(180)"/>
    <path class="cls-3" d="M258.97,65.43h65.43c0,36.11-29.32,65.43-65.43,65.43h0v-65.43h0Z" transform="translate(583.36 196.29) rotate(180)"/>
    <path class="cls-3" d="M602.47,130.86h0v65.43h-65.43c0-36.11,29.32-65.43,65.43-65.43Z" transform="translate(1139.52 327.15) rotate(180)"/>
    <path class="cls-3" d="M603.5,65.43h65.43c0,36.11-29.32,65.43-65.43,65.43h0v-65.43h0Z" transform="translate(1272.42 196.29) rotate(-180)"/>
    <g>
      <path class="cls-3" d="M613.74,180.33c1.49,0,2.85.36,4.08,1.09,1.23.73,2.2,1.7,2.93,2.92.73,1.22,1.09,2.57,1.09,4.06,0,1.11-.21,2.16-.63,3.14-.42.98-1,1.84-1.74,2.58-.74.74-1.6,1.32-2.58,1.74-.98.42-2.03.63-3.15.63-.96,0-1.81-.22-2.55-.65-.74-.43-1.36-1-1.86-1.69v1.95h-3.74v-23h3.74v9.58c.5-.7,1.12-1.26,1.86-1.69.74-.43,1.59-.65,2.55-.65ZM613.7,192.87c.8,0,1.52-.2,2.17-.61.65-.4,1.17-.94,1.56-1.62.39-.67.58-1.43.58-2.25s-.19-1.57-.58-2.25c-.39-.68-.91-1.22-1.56-1.62s-1.38-.6-2.16-.6-1.47.2-2.09.61c-.61.4-1.09.95-1.44,1.63-.35.68-.52,1.42-.52,2.23s.17,1.58.52,2.26c.35.68.83,1.22,1.44,1.62.61.4,1.31.6,2.09.6Z"/>
      <path class="cls-3" d="M630.27,196.49c-1.41,0-2.7-.36-3.86-1.09-1.16-.73-2.09-1.7-2.78-2.93-.69-1.23-1.04-2.58-1.04-4.06,0-1.11.2-2.16.6-3.14.4-.98.95-1.83,1.65-2.58.7-.74,1.52-1.32,2.45-1.74.93-.42,1.92-.63,2.97-.63,1.2,0,2.29.25,3.29.76,1,.51,1.84,1.2,2.54,2.08.69.88,1.2,1.88,1.52,3.01.32,1.12.39,2.3.21,3.53h-11.21c.14.57.38,1.09.71,1.54.33.46.74.82,1.24,1.09.5.27,1.07.41,1.7.42.65.01,1.25-.15,1.79-.47.54-.32.98-.76,1.34-1.31l3.82.89c-.62,1.36-1.55,2.47-2.79,3.34-1.24.86-2.62,1.3-4.16,1.3ZM626.5,186.89h7.54c-.11-.61-.35-1.17-.71-1.66-.36-.5-.81-.89-1.34-1.19-.53-.3-1.1-.44-1.72-.44s-1.18.15-1.7.44c-.52.29-.96.69-1.33,1.18-.36.5-.61,1.06-.74,1.68Z"/>
      <path class="cls-3" d="M646.36,196.49c-1.41,0-2.7-.36-3.86-1.09-1.16-.73-2.09-1.7-2.78-2.93s-1.04-2.58-1.04-4.06c0-1.11.2-2.16.6-3.14.4-.98.95-1.83,1.65-2.58.7-.74,1.52-1.32,2.45-1.74s1.92-.63,2.98-.63c1.2,0,2.29.25,3.29.76,1,.51,1.84,1.2,2.54,2.08.7.88,1.2,1.88,1.52,3.01.32,1.12.39,2.3.21,3.53h-11.21c.14.57.38,1.09.71,1.54.33.46.74.82,1.24,1.09.5.27,1.07.41,1.7.42.65.01,1.25-.15,1.79-.47s.98-.76,1.34-1.31l3.82.89c-.62,1.36-1.55,2.47-2.79,3.34-1.24.86-2.62,1.3-4.16,1.3ZM642.59,186.89h7.54c-.11-.61-.35-1.17-.71-1.66-.36-.5-.81-.89-1.34-1.19-.53-.3-1.1-.44-1.72-.44s-1.18.15-1.7.44c-.52.29-.96.69-1.33,1.18-.36.5-.61,1.06-.74,1.68Z"/>
      <path class="cls-3" d="M663.89,184.5h-2.97v11.59h-3.74v-11.59h-2.27v-3.74h2.27v-4.82h3.74v4.82h2.97v3.74Z"/>
      <path class="cls-3" d="M670.18,196.37c-.8-.05-1.57-.21-2.31-.48-.74-.27-1.4-.64-1.97-1.11-.57-.47-1.01-1.03-1.32-1.69l3.16-1.35c.12.2.32.42.6.65.28.23.61.42.99.57s.81.23,1.27.23c.39,0,.76-.05,1.11-.16.35-.11.64-.27.86-.5.22-.22.33-.52.33-.87,0-.38-.13-.67-.39-.88-.26-.21-.59-.37-.98-.48s-.77-.21-1.14-.3c-.97-.19-1.87-.5-2.71-.9-.83-.41-1.5-.94-2.01-1.59-.51-.65-.76-1.43-.76-2.35,0-1.01.27-1.89.81-2.62s1.24-1.3,2.1-1.7c.86-.4,1.8-.6,2.8-.6,1.22,0,2.33.25,3.35.76,1.02.51,1.82,1.22,2.42,2.14l-2.96,1.75c-.14-.25-.34-.47-.6-.68-.26-.21-.55-.38-.87-.52s-.67-.22-1.03-.24c-.46-.02-.88.02-1.26.12-.38.1-.68.28-.91.52-.23.25-.35.57-.35.98s.15.68.46.87c.31.19.68.34,1.11.44.43.1.85.21,1.25.34.9.3,1.75.66,2.54,1.09.79.43,1.43.96,1.91,1.58.48.62.71,1.37.69,2.24,0,.99-.3,1.86-.89,2.6-.59.74-1.36,1.31-2.29,1.69s-1.93.54-3,.46Z"/>
      <path class="cls-3" d="M679.39,196.49c-.53,0-.98-.19-1.36-.56-.37-.37-.56-.83-.56-1.37s.19-.97.56-1.35c.37-.38.83-.57,1.36-.57s.99.19,1.36.57c.38.38.57.83.57,1.35s-.19,1-.57,1.37c-.38.37-.83.56-1.36.56Z"/>
      <path class="cls-3" d="M688.58,177.54v3.22h4.19v3.74h-4.19v11.59h-3.74v-11.59h-1.67v-3.74h1.67v-3.22c0-.88.22-1.68.65-2.42.43-.73,1.02-1.31,1.76-1.75s1.55-.65,2.44-.65c.64,0,1.28.13,1.92.4.63.27,1.2.67,1.69,1.23l-2.7,2.64c-.09-.17-.22-.3-.39-.39-.17-.09-.34-.13-.51-.13-.3,0-.55.1-.77.31-.22.21-.33.46-.33.76Z"/>
      <path class="cls-3" d="M696.32,178.78c-.55,0-1.02-.18-1.4-.54-.38-.36-.57-.82-.57-1.37s.19-1,.57-1.36c.38-.37.84-.55,1.38-.55s1,.18,1.37.55c.37.37.56.82.56,1.36s-.18,1.01-.55,1.37c-.37.36-.82.54-1.36.54ZM694.42,180.76h3.74v15.34h-3.74v-15.34Z"/>
    </g>
    <rect class="cls-2" x="60.41" y="125.75" width="10.22" height="10.22" rx="5.11" ry="5.11" transform="translate(196.38 65.34) rotate(90)"/>
    <rect class="cls-1" x="241.32" y="150.28" width="10.22" height="10.22" rx="5.11" ry="5.11" transform="translate(492.87 310.79) rotate(-180)"/>
    <rect class="cls-2" x="241.32" y="101.21" width="10.22" height="10.22" rx="5.11" ry="5.11" transform="translate(492.87 212.65) rotate(-180)"/>
    <rect class="cls-1" x="369.12" y="101.21" width="10.22" height="10.22" rx="5.11" ry="5.11"/>
    <rect class="cls-2" x="369.12" y="150.28" width="10.22" height="10.22" rx="5.11" ry="5.11"/>
  </g>
</svg>