<?xml version="1.0" encoding="UTF-8"?>
<svg id="Layer_2" data-name="Layer 2" xmlns="http://www.w3.org/2000/svg" viewBox="0 0 246.67 370">
  <defs>
    <style>
      .cls-1 {
        fill: #05d690;
      }

      .cls-2 {
        fill: red;
      }

      .cls-3 {
        fill: #f2f2f2;
      }
    </style>
  </defs>
  <g id="Layer_5" data-name="Layer 5">
    <polygon class="cls-3" points="0 123 0 0 123.34 0 0 123"/>
    <path class="cls-3" d="M123.34,123.33v92.5c-8.51,0-16.23,3.45-21.81,9.03-5.58,5.59-9.03,13.29-9.03,21.81h-31.33c0-8.52-3.45-16.22-9.03-21.81-5.58-5.58-13.29-9.03-21.8-9.03s-16.23,3.45-21.81,9.03c-4.34,4.34-7.39,9.96-8.53,16.25v-117.78h123.34Z"/>
    <path class="cls-3" d="M123.34,277.5v92.5H0v-117.77c2.62,14.37,15.21,25.27,30.34,25.27,8.51,0,16.22-3.45,21.8-9.03,5.58-5.58,9.03-13.28,9.03-21.8h31.33c0,17.03,13.81,30.83,30.84,30.83Z"/>
    <path class="cls-3" d="M246.67,246.67h-92.5c0-8.52-3.45-16.22-9.03-21.81-5.58-5.58-13.29-9.03-21.8-9.03v-92.5c34.05,0,64.89,13.8,87.21,36.12s36.12,53.16,36.12,87.22Z"/>
    <path class="cls-3" d="M246.67,246.67c0,34.06-13.8,64.89-36.12,87.21-22.32,22.31-53.16,36.12-87.21,36.12v-92.5c8.51,0,16.22-3.45,21.8-9.03,5.58-5.58,9.03-13.28,9.03-21.8h92.5Z"/>
    <rect class="cls-1" x="113.87" y="237.03" width="19.27" height="19.27" rx="9.64" ry="9.64" transform="translate(370.17 123.16) rotate(90)"/>
    <rect class="cls-2" x="20.87" y="237.03" width="19.27" height="19.27" rx="9.64" ry="9.64" transform="translate(277.17 216.16) rotate(90)"/>
  </g>
</svg>