<?xml version="1.0" encoding="UTF-8"?>
<svg id="Layer_2" data-name="Layer 2" xmlns="http://www.w3.org/2000/svg" viewBox="0 0 500 385.49">
  <defs>
    <style>
      .cls-1 {
        fill: #05d690;
      }

      .cls-2 {
        fill: red;
      }

      .cls-3 {
        fill: #1a1a1a;
      }
    </style>
  </defs>
  <g id="Layer_5" data-name="Layer 5">
    <polygon class="cls-3" points="0 43.04 0 0 43.04 0 0 43.04"/>
    <path class="cls-3" d="M43.04,43.04v32.28c-2.97,0-5.66,1.2-7.61,3.15s-3.15,4.64-3.15,7.61H0v-43.04h43.04Z"/>
    <path class="cls-3" d="M43.04,96.84v32.28H0v-43.04h32.28c0,5.94,4.82,10.76,10.76,10.76Z"/>
    <path class="cls-3" d="M86.08,86.08h-32.28c0-2.97-1.2-5.66-3.15-7.61-1.95-1.95-4.63-3.15-7.61-3.15v-32.28c11.88,0,22.64,4.82,30.43,12.61,7.79,7.79,12.61,18.55,12.61,30.43Z"/>
    <path class="cls-3" d="M86.08,86.08c0,11.88-4.82,22.64-12.61,30.43s-18.55,12.61-30.43,12.61v-32.28c2.98,0,5.66-1.2,7.61-3.15,1.95-1.95,3.15-4.64,3.15-7.61h32.28Z"/>
    <rect class="cls-3" x="267.2" width="43.04" height="43.04"/>
    <rect class="cls-3" x="267.2" y="43.04" width="43.04" height="43.04"/>
    <rect class="cls-3" x="267.2" y="86.08" width="43.04" height="43.04"/>
    <rect class="cls-3" x="310.24" y="43.04" width="43.04" height="43.04"/>
    <path class="cls-3" d="M154.47,94.61c-1.95,1.95-3.15,4.64-3.15,7.61,0,5.94,4.82,10.76,10.76,10.76,2.97,0,5.66-1.2,7.61-3.15.97-.97,1.76-2.13,2.31-3.42v22.71h-43.04v-43.04h43.04v11.95c-.55-1.29-1.34-2.45-2.31-3.42-1.95-1.95-4.64-3.15-7.61-3.15s-5.66,1.2-7.61,3.15Z"/>
    <path class="cls-3" d="M154.47,62.33c-1.95,1.95-3.15,4.64-3.15,7.61,0,5.94,4.82,10.76,10.76,10.76,2.97,0,5.66-1.2,7.61-3.15.97-.97,1.76-2.13,2.31-3.42v11.95h-43.04v-43.04h43.04v22.71c-.55-1.29-1.34-2.45-2.31-3.42-1.95-1.95-4.64-3.15-7.61-3.15s-5.66,1.2-7.61,3.15Z"/>
    <path class="cls-3" d="M85.92,86.08h0c23.76,0,43.04,19.29,43.04,43.04h-43.04v-43.04h0Z" transform="translate(214.88 215.21) rotate(180)"/>
    <path class="cls-3" d="M85.92,43.04h43.04c0,23.76-19.29,43.04-43.04,43.04h0v-43.04h0Z" transform="translate(214.88 129.13) rotate(180)"/>
    <path class="cls-3" d="M238.57,94.61c-1.95,1.95-3.15,4.64-3.15,7.61,0,5.94,4.82,10.76,10.77,10.76,2.97,0,5.66-1.2,7.61-3.15,1.2-1.2,2.12-2.69,2.64-4.35v23.64h-43.04v-43.04h43.04v12.88c-.52-1.66-1.44-3.15-2.64-4.35-1.95-1.95-4.64-3.15-7.61-3.15s-5.67,1.2-7.62,3.15Z"/>
    <path class="cls-3" d="M238.57,62.33c-1.95,1.95-3.15,4.64-3.15,7.61,0,5.94,4.82,10.76,10.77,10.76,2.97,0,5.66-1.2,7.61-3.15,1.2-1.2,2.12-2.69,2.64-4.35v12.88h-43.04v-43.04h43.04v23.64c-.52-1.66-1.44-3.15-2.64-4.35-1.95-1.95-4.64-3.15-7.61-3.15s-5.67,1.2-7.62,3.15Z"/>
    <path class="cls-3" d="M170.36,86.08h0c23.76,0,43.04,19.29,43.04,43.04h-43.04v-43.04h0Z" transform="translate(383.76 215.21) rotate(180)"/>
    <path class="cls-3" d="M170.36,43.04h43.04c0,23.76-19.29,43.04-43.04,43.04h0v-43.04h0Z" transform="translate(383.76 129.13) rotate(180)"/>
    <path class="cls-3" d="M396.33,86.08h0v43.04h-43.04c0-23.76,19.29-43.04,43.04-43.04Z" transform="translate(749.62 215.21) rotate(180)"/>
    <path class="cls-3" d="M397,43.04h43.04c0,23.76-19.29,43.04-43.04,43.04h0v-43.04h0Z" transform="translate(837.05 129.13) rotate(180)"/>
    <rect class="cls-2" x="39.74" y="82.72" width="6.73" height="6.73" rx="3.36" ry="3.36" transform="translate(129.19 42.98) rotate(90)"/>
    <rect class="cls-1" x="158.75" y="98.86" width="6.73" height="6.73" rx="3.36" ry="3.36" transform="translate(324.23 204.45) rotate(-180)"/>
    <rect class="cls-2" x="158.75" y="66.58" width="6.73" height="6.73" rx="3.36" ry="3.36" transform="translate(324.23 139.89) rotate(180)"/>
    <rect class="cls-1" x="242.82" y="66.58" width="6.73" height="6.73" rx="3.36" ry="3.36"/>
    <rect class="cls-2" x="242.82" y="98.86" width="6.73" height="6.73" rx="3.36" ry="3.36"/>
    <path class="cls-3" d="M43.04,214.71h0v43.04H0C0,233.99,19.29,214.71,43.04,214.71Z" transform="translate(43.04 472.46) rotate(180)"/>
    <path class="cls-3" d="M43.72,171.67h43.04c0,23.76-19.29,43.04-43.04,43.04h0v-43.04h0Z" transform="translate(130.47 386.37) rotate(-180)"/>
    <path class="cls-3" d="M253.66,217.92v39.83h-43.04v-43.05h22.02c.02,5.92,4.83,10.72,10.76,10.72,2.97,0,5.66-1.2,7.61-3.15,1.2-1.2,2.12-2.69,2.65-4.35Z"/>
    <path class="cls-3" d="M253.66,171.66v39.74c-.53-1.66-1.45-3.15-2.65-4.35-1.95-1.95-4.64-3.15-7.61-3.15s-5.66,1.2-7.61,3.15c-1.95,1.95-3.15,4.64-3.15,7.61v.04h-22.02v-43.04h43.04Z"/>
    <path class="cls-3" d="M167.57,214.71h0c23.76,0,43.04,19.29,43.04,43.04h-43.04v-43.04h0Z" transform="translate(378.19 472.46) rotate(180)"/>
    <path class="cls-3" d="M167.57,171.67h43.04c0,23.76-19.29,43.04-43.04,43.04h0v-43.04h0Z" transform="translate(378.19 386.37) rotate(-180)"/>
    <rect class="cls-2" x="240.04" y="211.3" width="6.73" height="6.73" rx="3.36" ry="3.36"/>
    <path class="cls-3" d="M349.87,246.99c0,2.97,1.2,5.66,3.15,7.61,1.2,1.2,2.69,2.12,4.35,2.64h-39.83v-43.04h43.04v22.02c-5.93.03-10.71,4.84-10.71,10.77Z"/>
    <path class="cls-3" d="M403.63,214.2v43.04h-39.74c1.66-.52,3.15-1.44,4.35-2.64,1.94-1.95,3.15-4.64,3.15-7.61s-1.21-5.67-3.15-7.62c-1.95-1.95-4.64-3.15-7.61-3.15h-.05v-22.02h43.05Z"/>
    <path class="cls-3" d="M317.54,171.16h0c23.76,0,43.04,19.29,43.04,43.04h-43.04v-43.04h0Z" transform="translate(146.38 531.74) rotate(-90)"/>
    <path class="cls-3" d="M360.58,171.16h43.04c0,23.76-19.29,43.04-43.04,43.04h0v-43.04h0Z" transform="translate(189.42 574.79) rotate(-90)"/>
    <rect class="cls-2" x="357.26" y="243.63" width="6.73" height="6.73" rx="3.36" ry="3.36" transform="translate(607.62 -113.64) rotate(90)"/>
    <path class="cls-3" d="M169.22,214.7c0,2.89-.28,5.71-.82,8.44-1.7,8.5-5.89,16.1-11.79,22-7.79,7.79-18.55,12.61-30.43,12.61v-32.33c2.92-.03,5.57-1.23,7.49-3.15s3.14-4.62,3.15-7.57h32.4Z"/>
    <path class="cls-3" d="M169.22,214.7h-32.4v-.04c0-2.97-1.2-5.66-3.15-7.61-1.92-1.92-4.57-3.12-7.49-3.15v-32.24c23.77,0,43.04,19.27,43.04,43.04Z"/>
    <path class="cls-3" d="M126.18,225.42v32.33c-11.89,0-22.65-4.82-30.44-12.61-7.79-7.79-12.61-18.55-12.61-30.44h32.17c.02,5.92,4.82,10.72,10.76,10.72h.12Z"/>
    <path class="cls-3" d="M126.18,171.66v32.24h-.12c-2.98,0-5.66,1.2-7.61,3.15-1.95,1.95-3.15,4.64-3.15,7.61v.04h-32.17c0-11.88,4.82-22.64,12.61-30.43s18.55-12.61,30.44-12.61Z"/>
    <rect class="cls-2" x="122.69" y="211.3" width="6.73" height="6.73" rx="3.36" ry="3.36"/>
    <rect class="cls-3" x="264.37" y="171.67" width="43.04" height="43.04"/>
    <rect class="cls-3" x="264.37" y="214.71" width="43.04" height="43.04"/>
    <rect class="cls-3" x="413.92" y="171.67" width="43.04" height="43.04"/>
    <rect class="cls-3" x="413.92" y="129.18" width="43.04" height="43.04"/>
    <rect class="cls-3" x="413.92" y="214.71" width="43.04" height="43.04"/>
    <path class="cls-3" d="M253.58,345.66v39.82h-43.04v-43.04h22.02c.02,5.92,4.83,10.72,10.76,10.72,2.98,0,5.67-1.2,7.62-3.15,1.2-1.2,2.12-2.69,2.64-4.35Z"/>
    <path class="cls-3" d="M253.58,299.4v39.74c-.52-1.66-1.44-3.15-2.64-4.35-1.95-1.95-4.64-3.15-7.62-3.15s-5.66,1.2-7.61,3.15c-1.95,1.95-3.15,4.63-3.15,7.61v.04h-22.02v-43.04h43.04Z"/>
    <path class="cls-3" d="M167.5,342.45h0c23.76,0,43.04,19.29,43.04,43.04h-43.04v-43.04h0Z" transform="translate(378.03 727.93) rotate(180)"/>
    <path class="cls-3" d="M167.5,299.4h43.04c0,23.76-19.29,43.04-43.04,43.04h0v-43.04h0Z" transform="translate(378.03 641.85) rotate(180)"/>
    <rect class="cls-2" x="239.96" y="339.04" width="6.73" height="6.73" rx="3.36" ry="3.36"/>
    <path class="cls-3" d="M403.55,299.4v43.04h-43.04v-22.02c5.92-.03,10.71-4.84,10.71-10.76,0-2.98-1.2-5.67-3.15-7.62-1.2-1.2-2.69-2.12-4.35-2.64h39.83Z"/>
    <path class="cls-3" d="M360.51,320.42v22.02h-43.05v-43.04h39.74c-1.66.52-3.15,1.44-4.35,2.64-1.95,1.95-3.15,4.64-3.15,7.62s1.2,5.66,3.15,7.61c1.95,1.95,4.64,3.15,7.61,3.15h.05Z"/>
    <path class="cls-3" d="M360.51,342.45h0c23.76,0,43.04,19.29,43.04,43.04h-43.04v-43.04h0Z" transform="translate(745.99 -18.06) rotate(90)"/>
    <path class="cls-3" d="M317.46,342.45h43.04c0,23.76-19.29,43.04-43.04,43.04h0v-43.04h0Z" transform="translate(702.95 24.98) rotate(90)"/>
    <rect class="cls-2" x="357.1" y="306.3" width="6.73" height="6.73" rx="3.36" ry="3.36" transform="translate(50.8 670.12) rotate(-90)"/>
    <rect class="cls-3" x="264.37" y="299.4" width="43.04" height="43.04"/>
    <rect class="cls-3" x="264.37" y="256.92" width="43.04" height="43.04"/>
    <rect class="cls-3" x="264.37" y="342.45" width="43.04" height="43.04"/>
    <rect class="cls-3" x="413.92" y="256.36" width="43.04" height="43.04"/>
    <path class="cls-3" d="M456.96,299.4v32.28c-2.98,0-5.66,1.2-7.61,3.15-1.95,1.95-3.15,4.64-3.15,7.61h-32.28v-43.04h43.04Z"/>
    <path class="cls-3" d="M456.96,353.2v32.28h-43.04v-43.04h32.28c0,5.94,4.81,10.76,10.76,10.76Z"/>
    <path class="cls-3" d="M500,342.44h-32.28c0-2.97-1.2-5.66-3.15-7.61-1.95-1.95-4.64-3.15-7.61-3.15v-32.28c11.88,0,22.64,4.82,30.43,12.61,7.79,7.79,12.61,18.55,12.61,30.43Z"/>
    <path class="cls-3" d="M500,342.44c0,11.88-4.82,22.64-12.61,30.43-7.79,7.79-18.55,12.61-30.43,12.61v-32.28c2.97,0,5.66-1.2,7.61-3.15,1.95-1.95,3.15-4.64,3.15-7.61h32.28Z"/>
    <rect class="cls-2" x="453.65" y="339.08" width="6.73" height="6.73" rx="3.36" ry="3.36" transform="translate(799.46 -114.56) rotate(90)"/>
  </g>
</svg>